<?xml version="1.0" encoding="UTF-8"?>
<svg version="1.1" xmlns="http://www.w3.org/2000/svg" width="300" height="300">
<path d="M0 0 C4.64395719 3.86702138 8.18283259 8.08822382 11.5546875 13.0859375 C12.09923584 13.88257812 12.09923584 13.88257812 12.65478516 14.6953125 C13.88497025 16.50431994 15.0972587 18.32417269 16.3046875 20.1484375 C16.88851196 21.01480835 16.88851196 21.01480835 17.48413086 21.89868164 C20.09076658 25.91655688 21.45337244 29.48736134 22.5546875 34.0859375 C20.72328387 36.46866332 19.79370106 37.04559766 16.77734375 37.5546875 C15.73449219 37.565 14.69164062 37.5753125 13.6171875 37.5859375 C12.05677734 37.63234375 12.05677734 37.63234375 10.46484375 37.6796875 C6.54627308 36.88019389 5.73189683 35.37004737 3.5546875 32.0859375 C2.92949219 31.21195313 2.30429688 30.33796875 1.66015625 29.4375 C0.71076172 28.08785156 0.71076172 28.08785156 -0.2578125 26.7109375 C-3.64186996 22.03112569 -7.24841255 18.02819408 -11.4453125 14.0859375 C-12.21101562 13.28800781 -12.97671875 12.49007812 -13.765625 11.66796875 C-27.9376369 -1.98757042 -47.22634098 -7.31432279 -66.48046875 -7.125 C-84.99771675 -6.13984592 -102.79735226 1.41246697 -115.4453125 15.0859375 C-116.02410156 15.61058594 -116.60289063 16.13523438 -117.19921875 16.67578125 C-120.54772434 19.7752786 -123.3248979 22.69118321 -125.50390625 26.71484375 C-127.58159391 30.52835157 -129.50868148 33.85119394 -132.4453125 37.0859375 C-137.48490204 38.47356642 -142.69190771 38.4626399 -147.4453125 36.0859375 C-148.78602796 27.6585832 -143.38126816 21.22655658 -138.703125 14.62890625 C-137.00545727 12.3953388 -135.25118154 10.23282902 -133.4453125 8.0859375 C-132.45144531 6.89097656 -132.45144531 6.89097656 -131.4375 5.671875 C-127.74733724 1.3643466 -124.33557321 -1.95952999 -119.4453125 -4.9140625 C-118.2390026 -5.84672672 -117.03902658 -6.78761209 -115.84375 -7.734375 C-111.51083959 -11.00385182 -106.98800802 -13.3383049 -102.0703125 -15.6015625 C-101.28398438 -15.97861328 -100.49765625 -16.35566406 -99.6875 -16.74414062 C-65.22284062 -32.87833166 -28.55172252 -22.34879239 0 0 Z " fill="#A4D76D" transform="translate(214.4453125,89.9140625)"/>
<path d="M0 0 C3.68654883 2.76192942 4.87630712 4.244037 5.62818909 8.83924866 C5.65472205 10.35882834 5.65388576 11.8790411 5.63110352 13.39868164 C5.63825882 14.23179367 5.64541412 15.0649057 5.65278625 15.92326355 C5.66965713 18.66945693 5.65028256 21.41401425 5.62890625 24.16015625 C5.62973502 26.07157018 5.63219471 27.98298404 5.63621521 29.89439392 C5.639072 33.8966929 5.62438223 37.89843187 5.59692383 41.90063477 C5.56281818 47.03124458 5.56886804 52.16085461 5.5875864 57.29151249 C5.59815272 61.23693683 5.58922231 65.18212836 5.57420158 69.12753105 C5.56901816 71.01936591 5.56950352 72.91122506 5.57574654 74.80305672 C5.58119525 77.44614114 5.56083646 80.08779183 5.53344727 82.73071289 C5.53997314 83.51264008 5.54649902 84.29456726 5.55322266 85.10018921 C5.49098561 88.631052 5.29491295 90.61458421 3.1190033 93.45823669 C0.59762833 95.29276117 -0.87480307 95.92377568 -4 96 C-7.48634601 94.37844371 -8.84302194 93.23546708 -11 90 C-11.20487016 87.24306675 -11.29370323 84.58631308 -11.29052734 81.82836914 C-11.29724457 80.99554916 -11.30396179 80.16272919 -11.31088257 79.30467224 C-11.32990058 76.54810645 -11.33378854 73.79178359 -11.3359375 71.03515625 C-11.34236234 69.12088419 -11.34909047 67.20661312 -11.35610962 65.29234314 C-11.36809159 61.27828697 -11.37178945 57.26431693 -11.37060547 53.25024414 C-11.37040213 48.1039727 -11.39771588 42.95825256 -11.43214989 37.81211185 C-11.45437432 33.85816404 -11.4584444 29.90434988 -11.45738602 25.95034599 C-11.45974826 24.05290258 -11.4686067 22.15545583 -11.48405075 20.25807381 C-11.50362261 17.60533006 -11.49790797 14.95378802 -11.48583984 12.30102539 C-11.49707886 11.51595612 -11.50831787 10.73088684 -11.51989746 9.92202759 C-11.47932252 6.416484 -11.28003638 4.38309358 -9.18447876 1.51634216 C-5.93709656 -0.73780773 -3.85816434 -0.60918384 0 0 Z " fill="#90C56A" transform="translate(108,134)"/>
<path d="M0 0 C2.18249512 1.50769043 2.18249512 1.50769043 4 4 C4.39457777 6.91850997 4.54737311 9.45943471 4.51757812 12.37695312 C4.5245874 13.2196727 4.53159668 14.06239227 4.53881836 14.9306488 C4.55641445 17.71451836 4.54477009 20.49737022 4.53125 23.28125 C4.53394445 25.21651403 4.53782649 27.15177674 4.54284668 29.08703613 C4.54874391 33.14230238 4.5401715 37.19721614 4.52148438 41.25244141 C4.49869474 46.45142932 4.51181661 51.64959129 4.53577423 56.84854889 C4.5502261 60.84456611 4.54562902 64.84038741 4.53526306 68.83641052 C4.53259409 70.75337319 4.53587152 72.67035362 4.54518127 74.58729553 C4.55533682 77.26635883 4.53986027 79.94408334 4.51757812 82.62304688 C4.52567505 83.41589584 4.53377197 84.20874481 4.54211426 85.02561951 C4.48692522 88.60603328 4.30251078 90.60537106 2.09265137 93.48815918 C-0.1614628 95.11664917 -1.24843339 95.56787415 -4 95.5625 C-4.99 95.59537109 -4.99 95.59537109 -6 95.62890625 C-9.21256114 94.61870636 -10.20773795 92.80400555 -12 90 C-12.39233836 87.07326446 -12.55790666 84.52444224 -12.53344727 81.60131836 C-12.54206284 80.76820633 -12.55067841 79.9350943 -12.55955505 79.07673645 C-12.58220551 76.33078701 -12.57547923 73.58585865 -12.56640625 70.83984375 C-12.57164148 68.92842811 -12.57791758 67.01701506 -12.58518982 65.10560608 C-12.59559171 61.10340195 -12.5910344 57.10155344 -12.57641602 53.09936523 C-12.55921015 47.96865843 -12.58274668 42.8390696 -12.61790562 37.70848751 C-12.63985387 33.7630724 -12.63844471 29.81792601 -12.6301403 25.87246895 C-12.62931973 23.98061457 -12.63620346 22.08874067 -12.65091133 20.19694328 C-12.66831435 17.55368893 -12.65385264 14.91245958 -12.63110352 12.26928711 C-12.64279572 11.48735992 -12.65448792 10.70543274 -12.66653442 9.89981079 C-12.59944955 6.07271594 -12.33355498 4.35785658 -9.68321228 1.51441956 C-6.15978774 -0.47422035 -3.98603756 -0.57978728 0 0 Z " fill="#68B338" transform="translate(202,134)"/>
<path d="M0 0 C5.28442886 0.93945402 8.45057938 3.8074073 11.7109375 7.859375 C17.98835795 17.02387911 20.82026961 26.38480263 19.44140625 37.48828125 C17.43458978 47.09856387 13.18891663 54.95947949 5.8125 61.5 C3.16107049 63.1048126 2.2580086 63.54144266 -0.875 63.25 C-1.638125 63.0025 -2.40125 62.755 -3.1875 62.5 C-4.48672302 59.90155396 -4.32166238 57.99789022 -4.33276367 55.08813477 C-4.33914352 53.95678604 -4.34552338 52.82543732 -4.35209656 51.6598053 C-4.35320938 50.43273361 -4.3543222 49.20566193 -4.35546875 47.94140625 C-4.35879715 46.68617661 -4.36212555 45.43094696 -4.36555481 44.13768005 C-4.37062549 41.47871362 -4.37339473 38.81984936 -4.37280273 36.16088867 C-4.3727011 32.75330696 -4.38635443 29.34593355 -4.40357494 25.93840122 C-4.41736554 22.68941061 -4.4167836 19.44042217 -4.41796875 16.19140625 C-4.42515427 14.9663588 -4.43233978 13.74131134 -4.43974304 12.47914124 C-4.43666641 11.34464035 -4.43358978 10.21013947 -4.43041992 9.04125977 C-4.43184494 8.04135513 -4.43326996 7.0414505 -4.43473816 6.01124573 C-4.10774535 2.68991662 -3.41975025 0.7816572 0 0 Z " fill="#5EA833" transform="translate(235.1875,151.5)"/>
<path d="M0 0 C0.98526023 7.9010115 1.16071242 15.71591886 1.16796875 23.671875 C1.17129715 24.95306213 1.17462555 26.23424927 1.17805481 27.55426025 C1.18399662 30.24695684 1.18589951 32.93962155 1.18530273 35.63232422 C1.1852006 39.07076673 1.19892774 42.50900515 1.21607494 45.94739914 C1.22989138 49.25139413 1.22928351 52.55535151 1.23046875 55.859375 C1.23765427 57.08758972 1.24483978 58.31580444 1.25224304 59.58123779 C1.24916641 60.72973206 1.24608978 61.87822632 1.24291992 63.06152344 C1.24434494 64.06616638 1.24576996 65.07080933 1.24723816 66.105896 C0.97283598 69.3179748 0.12762786 71.98994068 -1 75 C-2.76813112 75.24915939 -4.53974982 75.47366632 -6.3125 75.6875 C-7.29863281 75.81511719 -8.28476563 75.94273437 -9.30078125 76.07421875 C-12 76 -12 76 -13.64642334 74.92874146 C-15.69109118 72.01524883 -15.36658203 69.59548395 -15.35644531 66.06591797 C-15.35848969 65.3648291 -15.36053406 64.66374023 -15.36264038 63.94140625 C-15.36564794 61.62473447 -15.34717572 59.30877463 -15.328125 56.9921875 C-15.32506774 55.38461483 -15.32319137 53.77703952 -15.32244873 52.16946411 C-15.31784616 48.80183769 -15.30341995 45.43445046 -15.28125 42.06689453 C-15.25292218 37.7410942 -15.24203399 33.41548198 -15.2375679 29.0895977 C-15.23342039 25.77143456 -15.22360929 22.45330978 -15.21169281 19.13516617 C-15.20597967 17.53949416 -15.20122444 15.94381843 -15.19742584 14.34814072 C-15.19058461 12.12379143 -15.17696379 9.89959411 -15.16113281 7.67529297 C-15.15430481 6.40748993 -15.14747681 5.13968689 -15.14044189 3.83346558 C-15 1 -15 1 -14 0 C-8.97777685 -0.85122426 -5.02799071 -1.13129791 0 0 Z " fill="#4B902D" transform="translate(226,144)"/>
<path d="M0 0 C0.02314591 7.65809552 0.0409266 15.31618742 0.05181217 22.97430992 C0.05703606 26.53008635 0.06412478 30.08583889 0.07543945 33.64160156 C0.08835914 37.72721591 0.09323229 41.81280506 0.09765625 45.8984375 C0.10281754 47.17866791 0.10797882 48.45889832 0.11329651 49.77792358 C0.11340981 51.54953354 0.11340981 51.54953354 0.11352539 53.35693359 C0.115746 54.40062103 0.11796661 55.44430847 0.12025452 56.5196228 C0 59 0 59 -1 61 C-4.60019136 61.34287537 -6.71187619 61.13805933 -10 59.5625 C-13.97083672 56.17074364 -16.443152 52.5247591 -19 48 C-19.41765625 47.27039063 -19.8353125 46.54078125 -20.265625 45.7890625 C-24.4660361 37.12201707 -24.40031461 26.74967889 -22.15234375 17.51953125 C-19.32665626 9.96201454 -14.83432373 3.52562426 -7.5625 -0.2734375 C-4.6153196 -1.10907097 -2.94009004 -0.68532566 0 0 Z " fill="#69B53A" transform="translate(72,153)"/>
<path d="M0 0 C1.93166016 0.01740234 1.93166016 0.01740234 3.90234375 0.03515625 C5.19269531 0.04417969 6.48304687 0.05320313 7.8125 0.0625 C8.81152344 0.07410156 9.81054688 0.08570313 10.83984375 0.09765625 C10.90925972 9.7114801 10.96261205 19.3252181 10.99528027 28.93923759 C11.01095694 33.40310371 11.03223144 37.86679876 11.06616211 42.33056641 C11.0986846 46.63587253 11.11668167 50.94101381 11.12447548 55.24643326 C11.13003183 56.89154787 11.14088164 58.53665315 11.15703392 60.18169785 C11.17871428 62.48054471 11.18181471 64.77870459 11.18041992 67.07763672 C11.18708176 68.38779755 11.19374359 69.69795837 11.2006073 71.04782104 C11.08155533 72.05426666 10.96250336 73.06071228 10.83984375 74.09765625 C7.33404994 76.43485212 6.28685915 76.2559322 2.21484375 75.84765625 C1.23257813 75.76 0.2503125 75.67234375 -0.76171875 75.58203125 C-1.55320312 75.4221875 -2.3446875 75.26234375 -3.16015625 75.09765625 C-4.62874098 72.16048679 -4.2874992 69.55618381 -4.28955078 66.27709961 C-4.29217926 65.22568535 -4.29217926 65.22568535 -4.29486084 64.1530304 C-4.29926991 61.83116191 -4.296345 59.50936929 -4.29296875 57.1875 C-4.29364198 55.57849615 -4.29461217 53.96949239 -4.29586792 52.36048889 C-4.29734355 48.9869795 -4.29519437 45.61349656 -4.29052734 42.23999023 C-4.28482556 37.90632749 -4.28811275 33.57272661 -4.29409981 29.23906612 C-4.29770516 25.91662628 -4.29656704 22.59420122 -4.29397202 19.27176094 C-4.29330291 17.67329463 -4.2941306 16.07482699 -4.29645157 14.47636223 C-4.29897816 12.2471445 -4.29513765 10.01802847 -4.28955078 7.78881836 C-4.28875519 6.51799911 -4.28795959 5.24717987 -4.28713989 3.93785095 C-4.10839021 -0.06017512 -4.05084466 0.12518061 0 0 Z " fill="#509A2F" transform="translate(81.16015625,143.90234375)"/>
<path d="M0 0 C1.5159375 0.3403125 1.5159375 0.3403125 3.0625 0.6875 C21.28010858 5.93537078 34.365629 25.73648836 43.234375 41.14453125 C44 43 44 43 44 47 C40.04 47 36.08 47 32 47 C32 46.34 32 45.68 32 45 C31.01 44.67 30.02 44.34 29 44 C27.5703125 42.0390625 27.5703125 42.0390625 26.125 39.625 C23.72284953 35.86536892 21.90086801 34.18829181 18 32 C16.99458858 30.83463676 16.01931276 29.64308407 15.0625 28.4375 C9.74071227 22.09138587 2.0651382 16.46187341 -5.37890625 12.84375 C-7 12 -7 12 -7.75 9.875 C-7.87375 8.946875 -7.87375 8.946875 -8 8 C-8.66 8 -9.32 8 -10 8 C-10 7.01 -10 6.02 -10 5 C-10.99 5 -11.98 5 -13 5 C-12.51812367 0.42217484 -12.51812367 0.42217484 -10.3125 -1.375 C-6.63031205 -2.37018593 -3.38138852 -1.69069426 0 0 Z " fill="#95CB5C" transform="translate(191,78)"/>
<path d="M0 0 C0.495 0.99 0.495 0.99 1 2 C-1.5636947 1.71681868 -4.12561526 1.42377507 -6.6875 1.125 C-7.40873047 1.04636719 -8.12996094 0.96773438 -8.87304688 0.88671875 C-11.95711449 0.52057374 -14.55522659 0.19400456 -17.41796875 -1.0546875 C-21.43001536 -2.52354571 -25.38791431 -2.29599972 -29.625 -2.25 C-30.51711182 -2.24250732 -31.40922363 -2.23501465 -32.32836914 -2.22729492 C-43.78509496 -2.55342895 -43.78509496 -2.55342895 -53.375 2.4375 C-57.06822405 6.04279015 -60.85112315 6.28319259 -65.84375 7.12890625 C-69.40888326 8.11284773 -71.21414268 9.62273509 -74 12 C-76.0625 12.87109375 -76.0625 12.87109375 -78 13.4375 C-82.03228948 14.84166784 -84.06566404 16.85095653 -87 20 C-88.54148249 21.29624664 -90.10573514 22.56572675 -91.6875 23.8125 C-92.45449219 24.41707031 -93.22148438 25.02164063 -94.01171875 25.64453125 C-96 27 -96 27 -98 27 C-98.061875 27.721875 -98.12375 28.44375 -98.1875 29.1875 C-99.2553751 32.88399074 -101.10819816 34.53138868 -104 37 C-104.66 37 -105.32 37 -106 37 C-106.268125 37.639375 -106.53625 38.27875 -106.8125 38.9375 C-108 41 -108 41 -111 42 C-113.77382858 45.97056398 -115.61279038 50.09767698 -115 55 C-115.66 55 -116.32 55 -117 55 C-118.34071546 46.5726457 -112.93595566 40.14061908 -108.2578125 33.54296875 C-106.56014477 31.3094013 -104.80586904 29.14689152 -103 27 C-102.00613281 25.80503906 -102.00613281 25.80503906 -100.9921875 24.5859375 C-97.30202474 20.2784091 -93.89026071 16.95453251 -89 14 C-87.7936901 13.06733578 -86.59371408 12.12645041 -85.3984375 11.1796875 C-81.06552709 7.91021068 -76.54269552 5.5757576 -71.625 3.3125 C-70.83867188 2.93544922 -70.05234375 2.55839844 -69.2421875 2.16992188 C-49.31471675 -7.15886958 -20.55179213 -9.13412984 0 0 Z " fill="#96CC7D" transform="translate(184,71)"/>
<path d="M0 0 C0.66 1.65 1.32 3.3 2 5 C1.09378906 5.67804688 0.18757813 6.35609375 -0.74609375 7.0546875 C-9.98223399 14.06500687 -18.37117259 20.88598285 -23.85595703 31.33178711 C-25.37360134 34.17688599 -26.85030951 36.58299048 -29 39 C-33.20018259 40.09277254 -36.76738872 39.8253592 -41 39 C-42.28302649 34.21781035 -41.54113884 32.02569897 -39.24609375 27.79296875 C-37.5543909 25.35882577 -35.63894894 24.28564179 -33 23 C-31.97889529 22.02155983 -30.98183363 21.01784219 -30 20 C-28.67967466 18.7568711 -27.34564899 17.52817153 -26 16.3125 C-24.9790625 15.37857422 -24.9790625 15.37857422 -23.9375 14.42578125 C-22 13 -22 13 -19 13 C-16.18563584 10.4818847 -13.78656722 7.75425495 -11.4375 4.8125 C-7.79223114 0.60642054 -5.51672531 -0.30648474 0 0 Z " fill="#84C550" transform="translate(110,87)"/>
<path d="M0 0 C2.18249512 1.50769043 2.18249512 1.50769043 4 4 C4.39457777 6.91850997 4.54737311 9.45943471 4.51757812 12.37695312 C4.5245874 13.2196727 4.53159668 14.06239227 4.53881836 14.9306488 C4.55641445 17.71451836 4.54477009 20.49737022 4.53125 23.28125 C4.53394445 25.21651403 4.53782649 27.15177674 4.54284668 29.08703613 C4.54874391 33.14230238 4.5401715 37.19721614 4.52148438 41.25244141 C4.49869474 46.45142932 4.51181661 51.64959129 4.53577423 56.84854889 C4.5502261 60.84456611 4.54562902 64.84038741 4.53526306 68.83641052 C4.53259409 70.75337319 4.53587152 72.67035362 4.54518127 74.58729553 C4.55533682 77.26635883 4.53986027 79.94408334 4.51757812 82.62304688 C4.52567505 83.41589584 4.53377197 84.20874481 4.54211426 85.02561951 C4.48692522 88.60603328 4.30251078 90.60537106 2.09265137 93.48815918 C-0.1614628 95.11664917 -1.24843339 95.56787415 -4 95.5625 C-4.99 95.59537109 -4.99 95.59537109 -6 95.62890625 C-9.21256114 94.61870636 -10.20773795 92.80400555 -12 90 C-12.39233836 87.07326446 -12.55790666 84.52444224 -12.53344727 81.60131836 C-12.54206284 80.76820633 -12.55067841 79.9350943 -12.55955505 79.07673645 C-12.58220551 76.33078701 -12.57547923 73.58585865 -12.56640625 70.83984375 C-12.57164148 68.92842811 -12.57791758 67.01701506 -12.58518982 65.10560608 C-12.59559171 61.10340195 -12.5910344 57.10155344 -12.57641602 53.09936523 C-12.55921015 47.96865843 -12.58274668 42.8390696 -12.61790562 37.70848751 C-12.63985387 33.7630724 -12.63844471 29.81792601 -12.6301403 25.87246895 C-12.62931973 23.98061457 -12.63620346 22.08874067 -12.65091133 20.19694328 C-12.66831435 17.55368893 -12.65385264 14.91245958 -12.63110352 12.26928711 C-12.64279572 11.48735992 -12.65448792 10.70543274 -12.66653442 9.89981079 C-12.59944955 6.07271594 -12.33355498 4.35785658 -9.68321228 1.51441956 C-6.15978774 -0.47422035 -3.98603756 -0.57978728 0 0 Z M-10 4 C-10.20380095 6.71932622 -10.28318334 9.33723381 -10.2746582 12.05810547 C-10.27976913 12.89077942 -10.28488007 13.72345337 -10.29014587 14.58135986 C-10.3040847 17.34337485 -10.3030817 20.10514145 -10.30078125 22.8671875 C-10.30466626 24.78288873 -10.30900052 26.69858909 -10.31376648 28.61428833 C-10.32123823 32.63432606 -10.32093083 36.65427598 -10.31567383 40.67431641 C-10.30988252 45.828376 -10.32679738 50.98207586 -10.3500185 56.13607597 C-10.36474563 60.09431056 -10.36562885 64.05245836 -10.36250877 68.01071548 C-10.36302265 69.91093787 -10.36827282 71.81116504 -10.37832069 73.71136093 C-10.39064598 76.36884709 -10.3839167 79.0256307 -10.37231445 81.68310547 C-10.37995819 82.46974579 -10.38760193 83.25638611 -10.39547729 84.06686401 C-10.36434286 87.29036246 -10.20083397 89.62525644 -8.66423035 92.49246216 C-6.99584745 94.2852212 -6.99584745 94.2852212 -4 94.4375 C-1.11105528 94.21500176 -1.11105528 94.21500176 0.66522217 92.99110413 C2.79637541 89.81203723 2.39906486 86.40302326 2.35644531 82.70483398 C2.35848969 81.85904785 2.36053406 81.01326172 2.36264038 80.1418457 C2.36565126 77.34304261 2.34716316 74.54482693 2.328125 71.74609375 C2.32506799 69.80461269 2.32319143 67.86312944 2.32244873 65.92164612 C2.31784384 61.85205701 2.30340994 57.78266559 2.28125 53.71313477 C2.25294873 48.48839458 2.24203682 43.26381007 2.2375679 38.03900051 C2.23341748 34.03024224 2.22360347 30.02151565 2.21169281 26.01277351 C2.20598331 24.08578814 2.20122686 22.1587997 2.19742584 20.23180962 C2.19057503 17.54307539 2.17694866 14.85446603 2.16113281 12.16577148 C2.16001495 11.36416092 2.15889709 10.56255035 2.15774536 9.73664856 C2.2143816 5.73815558 2.2143816 5.73815558 1 2 C-0.45792884 1.94600264 -1.91642712 1.90720823 -3.375 1.875 C-4.59316406 1.84019531 -4.59316406 1.84019531 -5.8359375 1.8046875 C-8.21342243 1.78629949 -8.21342243 1.78629949 -10 4 Z " fill="#D4E3CA" transform="translate(202,134)"/>
<path d="M0 0 C0.02314591 7.65809552 0.0409266 15.31618742 0.05181217 22.97430992 C0.05703606 26.53008635 0.06412478 30.08583889 0.07543945 33.64160156 C0.08835914 37.72721591 0.09323229 41.81280506 0.09765625 45.8984375 C0.10281754 47.17866791 0.10797882 48.45889832 0.11329651 49.77792358 C0.11340981 51.54953354 0.11340981 51.54953354 0.11352539 53.35693359 C0.115746 54.40062103 0.11796661 55.44430847 0.12025452 56.5196228 C0 59 0 59 -1 61 C-4.60019136 61.34287537 -6.71187619 61.13805933 -10 59.5625 C-13.97083672 56.17074364 -16.443152 52.5247591 -19 48 C-19.41765625 47.27039063 -19.8353125 46.54078125 -20.265625 45.7890625 C-24.4660361 37.12201707 -24.40031461 26.74967889 -22.15234375 17.51953125 C-19.32665626 9.96201454 -14.83432373 3.52562426 -7.5625 -0.2734375 C-4.6153196 -1.10907097 -2.94009004 -0.68532566 0 0 Z M-7 2 C-7.268125 2.56847656 -7.53625 3.13695312 -7.8125 3.72265625 C-10.09293813 8.21601953 -12.25229426 11.49059334 -16.1875 14.6875 C-19.65457366 17.53428741 -21.25319864 19.42584169 -22 24 C-22.89256695 34.17526327 -20.48507529 44.97898583 -14 53 C-12.40093976 54.78219284 -10.76925772 56.37818042 -9 58 C-8.67 58.33 -8.34 58.66 -8 59 C-6.35 59 -4.7 59 -3 59 C-3 40.19 -3 21.38 -3 2 C-4.32 2 -5.64 2 -7 2 Z " fill="#B1CD9F" transform="translate(72,153)"/>
<path d="M0 0 C1.93166016 0.01740234 1.93166016 0.01740234 3.90234375 0.03515625 C5.19269531 0.04417969 6.48304687 0.05320313 7.8125 0.0625 C8.81152344 0.07410156 9.81054688 0.08570313 10.83984375 0.09765625 C10.90925972 9.7114801 10.96261205 19.3252181 10.99528027 28.93923759 C11.01095694 33.40310371 11.03223144 37.86679876 11.06616211 42.33056641 C11.0986846 46.63587253 11.11668167 50.94101381 11.12447548 55.24643326 C11.13003183 56.89154787 11.14088164 58.53665315 11.15703392 60.18169785 C11.17871428 62.48054471 11.18181471 64.77870459 11.18041992 67.07763672 C11.18708176 68.38779755 11.19374359 69.69795837 11.2006073 71.04782104 C11.08155533 72.05426666 10.96250336 73.06071228 10.83984375 74.09765625 C7.33404994 76.43485212 6.28685915 76.2559322 2.21484375 75.84765625 C1.23257813 75.76 0.2503125 75.67234375 -0.76171875 75.58203125 C-1.55320312 75.4221875 -2.3446875 75.26234375 -3.16015625 75.09765625 C-4.62874098 72.16048679 -4.2874992 69.55618381 -4.28955078 66.27709961 C-4.29217926 65.22568535 -4.29217926 65.22568535 -4.29486084 64.1530304 C-4.29926991 61.83116191 -4.296345 59.50936929 -4.29296875 57.1875 C-4.29364198 55.57849615 -4.29461217 53.96949239 -4.29586792 52.36048889 C-4.29734355 48.9869795 -4.29519437 45.61349656 -4.29052734 42.23999023 C-4.28482556 37.90632749 -4.28811275 33.57272661 -4.29409981 29.23906612 C-4.29770516 25.91662628 -4.29656704 22.59420122 -4.29397202 19.27176094 C-4.29330291 17.67329463 -4.2941306 16.07482699 -4.29645157 14.47636223 C-4.29897816 12.2471445 -4.29513765 10.01802847 -4.28955078 7.78881836 C-4.28875519 6.51799911 -4.28795959 5.24717987 -4.28713989 3.93785095 C-4.10839021 -0.06017512 -4.05084466 0.12518061 0 0 Z M-2.16015625 2.09765625 C-2.18328149 11.33763177 -2.20107226 20.57759739 -2.21196842 29.81759548 C-2.21719686 34.1076554 -2.22429378 38.39769558 -2.2355957 42.68774414 C-2.246426 46.82445025 -2.25243339 50.96113733 -2.25503349 55.09785652 C-2.25688749 56.67957929 -2.26050761 58.26130096 -2.26588631 59.84301567 C-2.27309865 62.05088463 -2.27414711 64.25867398 -2.27368164 66.46655273 C-2.27590225 67.7256395 -2.27812286 68.98472626 -2.28041077 70.28196716 C-2.48223351 73.0010092 -2.48223351 73.0010092 -1.16015625 74.09765625 C2.13984375 74.09765625 5.43984375 74.09765625 8.83984375 74.09765625 C8.83984375 50.33765625 8.83984375 26.57765625 8.83984375 2.09765625 C5.20984375 2.09765625 1.57984375 2.09765625 -2.16015625 2.09765625 Z " fill="#CCDAC2" transform="translate(81.16015625,143.90234375)"/>
<path d="M0 0 C0.98526023 7.9010115 1.16071242 15.71591886 1.16796875 23.671875 C1.17129715 24.95306213 1.17462555 26.23424927 1.17805481 27.55426025 C1.18399662 30.24695684 1.18589951 32.93962155 1.18530273 35.63232422 C1.1852006 39.07076673 1.19892774 42.50900515 1.21607494 45.94739914 C1.22989138 49.25139413 1.22928351 52.55535151 1.23046875 55.859375 C1.23765427 57.08758972 1.24483978 58.31580444 1.25224304 59.58123779 C1.24916641 60.72973206 1.24608978 61.87822632 1.24291992 63.06152344 C1.24434494 64.06616638 1.24576996 65.07080933 1.24723816 66.105896 C0.97283598 69.3179748 0.12762786 71.98994068 -1 75 C-2.76813112 75.24915939 -4.53974982 75.47366632 -6.3125 75.6875 C-7.29863281 75.81511719 -8.28476563 75.94273437 -9.30078125 76.07421875 C-12 76 -12 76 -13.64642334 74.92874146 C-15.69109118 72.01524883 -15.36658203 69.59548395 -15.35644531 66.06591797 C-15.35848969 65.3648291 -15.36053406 64.66374023 -15.36264038 63.94140625 C-15.36564794 61.62473447 -15.34717572 59.30877463 -15.328125 56.9921875 C-15.32506774 55.38461483 -15.32319137 53.77703952 -15.32244873 52.16946411 C-15.31784616 48.80183769 -15.30341995 45.43445046 -15.28125 42.06689453 C-15.25292218 37.7410942 -15.24203399 33.41548198 -15.2375679 29.0895977 C-15.23342039 25.77143456 -15.22360929 22.45330978 -15.21169281 19.13516617 C-15.20597967 17.53949416 -15.20122444 15.94381843 -15.19742584 14.34814072 C-15.19058461 12.12379143 -15.17696379 9.89959411 -15.16113281 7.67529297 C-15.15430481 6.40748993 -15.14747681 5.13968689 -15.14044189 3.83346558 C-15 1 -15 1 -14 0 C-8.97777685 -0.85122426 -5.02799071 -1.13129791 0 0 Z M-13 2 C-13 25.76 -13 49.52 -13 74 C-9.37 74 -5.74 74 -2 74 C-0.67792274 72.90335295 -0.67792274 72.90335295 -0.87974548 70.18431091 C-0.88196609 68.92522415 -0.88418671 67.66613739 -0.88647461 66.36889648 C-0.88632858 65.67624695 -0.88618256 64.98359741 -0.8860321 64.2699585 C-0.88673126 61.97030554 -0.89452372 59.67073263 -0.90234375 57.37109375 C-0.90420792 55.78068588 -0.90563183 54.19027743 -0.90663147 52.59986877 C-0.91045671 48.4060407 -0.92028705 44.21224705 -0.93133545 40.01843262 C-0.94154943 35.74211086 -0.94612906 31.46578356 -0.95117188 27.18945312 C-0.96190931 18.79295292 -0.97898581 10.39648074 -1 2 C-4.96 2 -8.92 2 -13 2 Z " fill="#D3DECB" transform="translate(226,144)"/>
<path d="M0 0 C5.28442886 0.93945402 8.45057938 3.8074073 11.7109375 7.859375 C17.98835795 17.02387911 20.82026961 26.38480263 19.44140625 37.48828125 C17.43458978 47.09856387 13.18891663 54.95947949 5.8125 61.5 C3.16107049 63.1048126 2.2580086 63.54144266 -0.875 63.25 C-1.638125 63.0025 -2.40125 62.755 -3.1875 62.5 C-4.48672302 59.90155396 -4.32166238 57.99789022 -4.33276367 55.08813477 C-4.33914352 53.95678604 -4.34552338 52.82543732 -4.35209656 51.6598053 C-4.35320938 50.43273361 -4.3543222 49.20566193 -4.35546875 47.94140625 C-4.35879715 46.68617661 -4.36212555 45.43094696 -4.36555481 44.13768005 C-4.37062549 41.47871362 -4.37339473 38.81984936 -4.37280273 36.16088867 C-4.3727011 32.75330696 -4.38635443 29.34593355 -4.40357494 25.93840122 C-4.41736554 22.68941061 -4.4167836 19.44042217 -4.41796875 16.19140625 C-4.42515427 14.9663588 -4.43233978 13.74131134 -4.43974304 12.47914124 C-4.43666641 11.34464035 -4.43358978 10.21013947 -4.43041992 9.04125977 C-4.43184494 8.04135513 -4.43326996 7.0414505 -4.43473816 6.01124573 C-4.10774535 2.68991662 -3.41975025 0.7816572 0 0 Z M-2.1875 2.5 C-2.1875 21.97 -2.1875 41.44 -2.1875 61.5 C5.27728094 60.43360272 5.96229576 60.22458008 10.171875 54.953125 C14.05580156 49.14573006 17.34239087 42.55163692 17.8125 35.5 C17.895 34.30375 17.9775 33.1075 18.0625 31.875 C17.88064096 22.38195836 15.1861041 14.50449385 8.8125 7.5 C7.9875 6.51 7.1625 5.52 6.3125 4.5 C3.56522488 1.87530495 3.56522488 1.87530495 -2.1875 2.5 Z " fill="#D7E3CF" transform="translate(235.1875,151.5)"/>
<path d="M0 0 C0.66 1.65 1.32 3.3 2 5 C1.07058594 5.70125 0.14117187 6.4025 -0.81640625 7.125 C-7.53476111 12.25856335 -13.83347488 17.22136366 -19 24 C-19.33 23.01 -19.66 22.02 -20 21 C-20.33 20.34 -20.66 19.68 -21 19 C-21.5775 19.495 -22.155 19.99 -22.75 20.5 C-25 22 -25 22 -29 22 C-27.9789114 18.32408105 -27.08564783 17.0660202 -24 14.6875 C-21 13 -21 13 -19 13 C-16.22580125 10.45073629 -13.77857109 7.75328992 -11.4375 4.8125 C-7.79223114 0.60642054 -5.51672531 -0.30648474 0 0 Z " fill="#9CD362" transform="translate(110,87)"/>
<path d="M0 0 C3.96 0 7.92 0 12 0 C12 23.43 12 46.86 12 71 C11.67 71 11.34 71 11 71 C10.96241577 69.06519775 10.96241577 69.06519775 10.92407227 67.09130859 C10.82890579 62.24178477 10.72896571 57.39236842 10.62768555 52.54296875 C10.5847448 50.45608051 10.54304711 48.36916627 10.50268555 46.28222656 C10.19774606 30.45741994 10.19774606 30.45741994 9.15625 14.66796875 C8.95747447 11.27387653 9.28964279 8.31500031 10 5 C9.01 4.67 8.02 4.34 7 4 C6.01 4.495 6.01 4.495 5 5 C2.875 4.5625 2.875 4.5625 1 4 C1.144375 4.825 1.28875 5.65 1.4375 6.5 C3.21621622 17.56756757 3.21621622 17.56756757 2 20 C1.7724985 21.87056791 1.59037189 23.74685958 1.4375 25.625 C1.35371094 26.62789062 1.26992187 27.63078125 1.18359375 28.6640625 C1.12300781 29.43492187 1.06242188 30.20578125 1 31 C0.67 31 0.34 31 0 31 C0 20.77 0 10.54 0 0 Z " fill="#7AAE58" transform="translate(213,146)"/>
<path d="M0 0 C13.27276239 1.46158395 28.96191406 14.72220866 37.3125 24.8125 C38.57405168 26.51818327 39.8008474 28.2498854 41 30 C41.38559082 30.55655273 41.77118164 31.11310547 42.16845703 31.68652344 C43.42167948 33.50894444 44.65283704 35.34412174 45.875 37.1875 C46.447948 38.04275269 46.447948 38.04275269 47.0324707 38.9152832 C49.58264175 42.88891232 50.90537738 46.46595788 52 51 C50.16859637 53.38272582 49.23901356 53.95966016 46.22265625 54.46875 C37.67817043 54.5532443 37.67817043 54.5532443 34.625 52.0625 C34.08875 51.051875 33.5525 50.04125 33 49 C31.92750695 47.38856571 30.84342389 45.78480586 29.75 44.1875 C28.83105746 42.79316393 27.91361578 41.39783214 27 40 C27.99 40 28.98 40 30 40 C31.53515625 41.93359375 31.53515625 41.93359375 33.0625 44.4375 C34.97424522 47.81592357 34.97424522 47.81592357 38 50 C38 50.66 38 51.32 38 52 C41.96 52 45.92 52 50 52 C41.66364251 27.36985286 22.44493578 12.38906323 0 1 C0 0.67 0 0.34 0 0 Z " fill="#EAF0E2" transform="translate(185,73)"/>
<path d="M0 0 C1.45792884 -0.05399736 2.91642712 -0.09279177 4.375 -0.125 C5.18710938 -0.14820313 5.99921875 -0.17140625 6.8359375 -0.1953125 C9 0 9 0 11 2 C11.24050903 4.74612427 11.24050903 4.74612427 11.22705078 8.28564453 C11.22734283 8.92967224 11.22763489 9.57369995 11.22793579 10.23724365 C11.22654074 12.36923627 11.21097174 14.50088082 11.1953125 16.6328125 C11.19158298 18.10968841 11.18873572 19.58656678 11.18673706 21.06344604 C11.17909574 24.95317398 11.15944308 28.84275288 11.1373291 32.73242188 C11.11688135 36.70050032 11.10773764 40.66860282 11.09765625 44.63671875 C11.07619756 52.42454716 11.04205572 60.21225271 11 68 C10.67 68 10.34 68 10 68 C9.67 47.21 9.34 26.42 9 5 C7.02 5.33 5.04 5.66 3 6 C0.94992458 11.86994252 0.81837797 17.0078103 1 23.1875 C1.05116963 24.95157288 1.09318282 26.71594073 1.125 28.48046875 C1.14820312 29.25285889 1.17140625 30.02524902 1.1953125 30.82104492 C0.97452171 33.28424215 0.22852817 34.87335244 -1 37 C-1.0246826 32.05208706 -1.04285166 27.1042098 -1.05493164 22.15625 C-1.05996653 20.47232438 -1.06679481 18.78840314 -1.07543945 17.10449219 C-1.08754196 14.68683797 -1.09323668 12.26924144 -1.09765625 9.8515625 C-1.10281754 9.0963028 -1.10797882 8.34104309 -1.11329651 7.56289673 C-1.11387171 2.22774341 -1.11387171 2.22774341 0 0 Z " fill="#8DC260" transform="translate(100,136)"/>
<path d="M0 0 C1.21816406 0.03480469 1.21816406 0.03480469 2.4609375 0.0703125 C3.68683594 0.09738281 3.68683594 0.09738281 4.9375 0.125 C5.87722656 0.15980469 5.87722656 0.15980469 6.8359375 0.1953125 C8.15822939 2.83989629 7.93270944 4.87292551 7.8984375 7.8203125 C7.88941406 8.82320312 7.88039062 9.82609375 7.87109375 10.859375 C7.85949219 11.63023437 7.84789062 12.40109375 7.8359375 13.1953125 C7.5059375 13.1953125 7.1759375 13.1953125 6.8359375 13.1953125 C6.5059375 11.2153125 6.1759375 9.2353125 5.8359375 7.1953125 C1.49409548 7.37995616 1.49409548 7.37995616 -2.1640625 9.1953125 C-2.28705416 10.88240597 -2.34191508 12.57452153 -2.36938477 14.26586914 C-2.3993026 15.88743675 -2.3993026 15.88743675 -2.42982483 17.54176331 C-2.44653732 18.7177861 -2.46324982 19.8938089 -2.48046875 21.10546875 C-2.50124985 22.30264023 -2.52203094 23.49981171 -2.54344177 24.73326111 C-2.60906529 28.57471737 -2.66788153 32.41624451 -2.7265625 36.2578125 C-2.76973555 38.85482517 -2.81334943 41.45183056 -2.85742188 44.04882812 C-2.96475966 50.43091367 -3.06650181 56.81307043 -3.1640625 63.1953125 C-3.4940625 63.1953125 -3.8240625 63.1953125 -4.1640625 63.1953125 C-4.21035196 55.27645672 -4.24591432 47.35765724 -4.26768684 39.43869972 C-4.27813524 35.761819 -4.29231352 32.08503067 -4.31494141 28.40820312 C-4.33663241 24.86151595 -4.34862317 21.31491778 -4.35381699 17.7681694 C-4.3575195 16.41333998 -4.36474939 15.05851556 -4.37552261 13.70372391 C-4.38998698 11.80985493 -4.39087899 9.91589686 -4.39111328 8.02197266 C-4.39777512 6.40314682 -4.39777512 6.40314682 -4.40457153 4.75161743 C-4.09636345 1.47575775 -3.3663619 0.30382328 0 0 Z " fill="#82C353" transform="translate(196.1640625,135.8046875)"/>
<path d="M0 0 C0.763125 0.20625 1.52625 0.4125 2.3125 0.625 C2.33564591 8.28309552 2.3534266 15.94118742 2.36431217 23.59930992 C2.36953606 27.15508635 2.37662478 30.71083889 2.38793945 34.26660156 C2.40085914 38.35221591 2.40573229 42.43780506 2.41015625 46.5234375 C2.41531754 47.80366791 2.42047882 49.08389832 2.42579651 50.40292358 C2.42587204 51.58399689 2.42594757 52.76507019 2.42602539 53.98193359 C2.428246 55.02562103 2.43046661 56.06930847 2.43275452 57.1446228 C2.3125 59.625 2.3125 59.625 1.3125 61.625 C-0.6675 61.625 -2.6475 61.625 -4.6875 61.625 C-4.6875 61.295 -4.6875 60.965 -4.6875 60.625 C-3.0375 60.625 -1.3875 60.625 0.3125 60.625 C0.3125 41.155 0.3125 21.685 0.3125 1.625 C-1.6675 1.625 -3.6475 1.625 -5.6875 1.625 C-2.6875 -0.375 -2.6875 -0.375 0 0 Z " fill="#E9EEE4" transform="translate(69.6875,152.375)"/>
<path d="M0 0 C0.33 0 0.66 0 1 0 C1.08706892 3.27066566 1.14041241 6.54103365 1.1875 9.8125 C1.22520508 11.2056543 1.22520508 11.2056543 1.26367188 12.62695312 C1.27817383 13.9659668 1.27817383 13.9659668 1.29296875 15.33203125 C1.31653442 16.56530151 1.31653442 16.56530151 1.34057617 17.82348633 C0.91715613 20.52942875 0.18849601 21.39399585 -2 23 C-5.0625 23.3125 -5.0625 23.3125 -8 23 C-10 21 -10 21 -10.1953125 18.8359375 C-10.17210937 18.02382812 -10.14890625 17.21171875 -10.125 16.375 C-10.10695312 15.55773437 -10.08890625 14.74046875 -10.0703125 13.8984375 C-10.04710937 13.27195313 -10.02390625 12.64546875 -10 12 C-9.67 12.66 -9.34 13.32 -9 14 C-5.9687586 13.07474636 -3.43896134 12.05223386 -1 10 C0.01295318 6.65148121 0.10632403 3.48211211 0 0 Z " fill="#52A32B" transform="translate(203,205)"/>
<path d="M0 0 C0.33 0.66 0.66 1.32 1 2 C1.66 2 2.32 2 3 2 C2.67 3.98 2.34 5.96 2 8 C6.79308342 8.46522293 6.79308342 8.46522293 10.9375 6.5 C11.288125 6.005 11.63875 5.51 12 5 C14.52259061 6.97420135 14.9929808 7.96745642 15.6875 11.1875 C15.790625 12.115625 15.89375 13.04375 16 14 C12.04 14 8.08 14 4 14 C4 13.34 4 12.68 4 12 C3.01 11.67 2.02 11.34 1 11 C-0.39712274 9.04402816 -1.73779907 7.04563599 -3 5 C-1.125 1.125 -1.125 1.125 0 0 Z " fill="#7EBD4A" transform="translate(219,111)"/>
<path d="M0 0 C7.2547009 1.01474939 12.811421 3.08355629 19 7 C15.61682513 7.97591583 13.4342662 7.85856655 10 7 C10 6.34 10 5.68 10 5 C8.02 5.66 6.04 6.32 4 7 C4 8.32 4 9.64 4 11 C4.99 11.33 5.98 11.66 7 12 C6.01 13.485 6.01 13.485 5 15 C5 14.34 5 13.68 5 13 C3.9275 13.04125 2.855 13.0825 1.75 13.125 C-1.80047181 13.00665094 -3.03649696 12.63503616 -6 11 C-7.32 11 -8.64 11 -10 11 C-9.67 10.34 -9.34 9.68 -9 9 C-6.67711188 8.60689586 -4.38154824 8.49250305 -2.03125 8.34375 C-1.3609375 8.2303125 -0.690625 8.116875 0 8 C1.43088528 5.13822943 0.59991697 3.06624227 0 0 Z " fill="#A2D265" transform="translate(175,71)"/>
<path d="M0 0 C3 1 3 1 3.93359375 2.765625 C4 5 4 5 2.34765625 7.359375 C1.59355469 8.14828125 0.83945313 8.9371875 0.0625 9.75 C-0.68902344 10.54921875 -1.44054687 11.3484375 -2.21484375 12.171875 C-2.80394531 12.77515625 -3.39304687 13.3784375 -4 14 C-4.33 13.01 -4.66 12.02 -5 11 C-5.33 10.34 -5.66 9.68 -6 9 C-6.5775 9.495 -7.155 9.99 -7.75 10.5 C-10 12 -10 12 -14 12 C-12.9789114 8.32408105 -12.08564783 7.0660202 -9 4.6875 C-6 3 -6 3 -4 3 C-3.360625 2.484375 -2.72125 1.96875 -2.0625 1.4375 C-1.381875 0.963125 -0.70125 0.48875 0 0 Z " fill="#91D05B" transform="translate(95,97)"/>
<path d="M0 0 C3.63 0 7.26 0 11 0 C11 8.58 11 17.16 11 26 C10.67 26 10.34 26 10 26 C9.67 19.07 9.34 12.14 9 5 C8.01 4.67 7.02 4.34 6 4 C6 3.34 6 2.68 6 2 C5.34 2 4.68 2 4 2 C2.29955914 4.96057027 1.76415431 7.01910944 1.83984375 10.421875 C1.85144531 11.27563721 1.86304687 12.12939941 1.875 13.0090332 C1.895625 13.91355225 1.91625 14.81807129 1.9375 15.75 C2.05188661 24.89060189 1.72177632 33.88757396 1 43 C0.67 43 0.34 43 0 43 C0 28.81 0 14.62 0 0 Z " fill="#78B54A" transform="translate(79,146)"/>
<path d="M0 0 C-1.10794922 0.4021875 -1.10794922 0.4021875 -2.23828125 0.8125 C-12.26909116 4.68717117 -20.66901024 10.07460566 -28 18 C-28.57878906 18.52464844 -29.15757813 19.04929687 -29.75390625 19.58984375 C-33.10241184 22.6893411 -35.8795854 25.60524571 -38.05859375 29.62890625 C-40.13888009 33.444933 -42.05334734 36.76847457 -45 40 C-49.55127735 41.18148283 -53.4134802 40.89320169 -58 40 C-58 39.67 -58 39.34 -58 39 C-54.04 39 -50.08 39 -46 39 C-45.34 37.35 -44.68 35.7 -44 34 C-37.52506064 23.22069755 -15.15768141 -5.98423829 0 0 Z " fill="#ECF2E4" transform="translate(127,87)"/>
<path d="M0 0 C0.495 0.99 0.495 0.99 1 2 C-1.5636947 1.71681868 -4.12561526 1.42377507 -6.6875 1.125 C-7.40873047 1.04636719 -8.12996094 0.96773438 -8.87304688 0.88671875 C-9.57880859 0.80292969 -10.28457031 0.71914062 -11.01171875 0.6328125 C-11.65584717 0.55949707 -12.29997559 0.48618164 -12.96362305 0.41064453 C-15 0 -15 0 -17.24023438 -1.02734375 C-20.88767615 -2.31285401 -24.32915741 -2.24855088 -28.14453125 -2.1953125 C-28.91431808 -2.1924826 -29.68410492 -2.18965271 -30.47721863 -2.18673706 C-32.92247425 -2.17559157 -35.36735612 -2.15049781 -37.8125 -2.125 C-39.47590615 -2.1149629 -41.13931807 -2.10583833 -42.80273438 -2.09765625 C-46.86863237 -2.07567073 -50.93425294 -2.04118014 -55 -2 C-42.76353205 -10.1576453 -12.62161208 -5.60960537 0 0 Z " fill="#E1F0D2" transform="translate(184,71)"/>
<path d="M0 0 C0.66 0.33 1.32 0.66 2 1 C1.21753906 1.84304687 0.43507813 2.68609375 -0.37109375 3.5546875 C-1.39334825 4.66134834 -2.41547716 5.76812521 -3.4375 6.875 C-3.95376953 7.43058594 -4.47003906 7.98617187 -5.00195312 8.55859375 C-7.82104736 11.54749315 -7.82104736 11.54749315 -10 15 C-9.01 15.33 -8.02 15.66 -7 16 C-6.67 14.35 -6.34 12.7 -6 11 C-5.01 11.66 -4.02 12.32 -3 13 C-5.54018673 16.53811723 -6.81841206 18.02429615 -11 19 C-11.69937532 20.31647119 -12.36729133 21.65022151 -13 23 C-13.99 23.33 -14.98 23.66 -16 24 C-18.77382858 27.97056398 -20.61279038 32.09767698 -20 37 C-20.66 37 -21.32 37 -22 37 C-23.34071546 28.5726457 -17.93595566 22.14061908 -13.2578125 15.54296875 C-9.13086318 10.11327275 -4.58831015 5.04118232 0 0 Z " fill="#CBE1C2" transform="translate(89,89)"/>
<path d="M0 0 C0 0.33 0 0.66 0 1 C-0.73605469 1.08636719 -1.47210938 1.17273438 -2.23046875 1.26171875 C-8.44180539 1.97595847 -8.44180539 1.97595847 -13.375 5.4375 C-17.64477565 9.60561433 -23.26252729 9.96675089 -29 11 C-29 10.34 -29 9.68 -29 9 C-27.68 9 -26.36 9 -25 9 C-24.67 8.01 -24.34 7.02 -24 6 C-21.4375 4.8125 -21.4375 4.8125 -19 4 C-22.99000166 5.42500059 -26.80530429 6.40075776 -31 7 C-22.38748932 -0.53594685 -10.77101889 -0.17372611 0 0 Z " fill="#B2D693" transform="translate(144,68)"/>
<path d="M0 0 C1.98 0 3.96 0 6 0 C7.875 2 7.875 2 9 4 C8.34 4.66 7.68 5.32 7 6 C6.34 4.68 5.68 3.36 5 2 C4.01 2.66 3.02 3.32 2 4 C1.56168713 6.33972518 1.56168713 6.33972518 1.65942383 9.09228516 C1.65965042 10.15323395 1.65987701 11.21418274 1.66011047 12.30728149 C1.67559433 13.45626923 1.69107819 14.60525696 1.70703125 15.7890625 C1.71127609 16.96262299 1.71552094 18.13618347 1.71989441 19.3453064 C1.73673024 23.10543454 1.77439223 26.86503297 1.8125 30.625 C1.82754046 33.16926311 1.84122997 35.7135346 1.85351562 38.2578125 C1.88664983 44.50539005 1.93689794 50.75265719 2 57 C3.65 57 5.3 57 7 57 C6.34 57.66 5.68 58.32 5 59 C3.35 59 1.7 59 0 59 C0 39.53 0 20.06 0 0 Z " fill="#6EA44A" transform="translate(233,154)"/>
<path d="M0 0 C0.66 0.33 1.32 0.66 2 1 C1.51789063 1.39832031 1.03578125 1.79664062 0.5390625 2.20703125 C-0.09257813 2.73683594 -0.72421875 3.26664062 -1.375 3.8125 C-2.00148438 4.33457031 -2.62796875 4.85664062 -3.2734375 5.39453125 C-5.2221048 7.08225739 -5.2221048 7.08225739 -7 10 C-7.99 10 -8.98 10 -10 10 C-10.061875 10.78375 -10.12375 11.5675 -10.1875 12.375 C-10.455625 13.24125 -10.72375 14.1075 -11 15 C-13.5625 16.3125 -13.5625 16.3125 -16 17 C-16 17.66 -16 18.32 -16 19 C-16.99 19 -17.98 19 -19 19 C-19.33 20.65 -19.66 22.3 -20 24 C-21.32 23.67 -22.64 23.34 -24 23 C-22.58611621 21.24775086 -21.16877217 19.49829345 -19.75 17.75 C-18.96109375 16.77546875 -18.1721875 15.8009375 -17.359375 14.796875 C-13.83575916 10.61987344 -10.67420783 7.78226657 -6 5 C-3.94669737 3.38842441 -1.97949923 1.70329003 0 0 Z " fill="#8FC387" transform="translate(102,81)"/>
<path d="M0 0 C6.90635717 2.15971994 9.80224283 7.89114964 13.078125 14.015625 C16.19335176 21.28448743 16.91248711 30.35005157 15 38 C14.67 38 14.34 38 14 38 C13.90203125 36.73285156 13.8040625 35.46570313 13.703125 34.16015625 C12.63865246 21.6752193 11.32767846 12.99828873 2.48828125 3.62890625 C1 2 1 2 0 0 Z " fill="#DEE6D8" transform="translate(239,154)"/>
<path d="M0 0 C0.66 1.32 1.32 2.64 2 4 C1.67 4.33 1.34 4.66 1 5 C0.87677242 6.77903357 0.82210981 8.56286203 0.79467773 10.34594727 C0.77473251 11.4870546 0.75478729 12.62816193 0.73423767 13.80384827 C0.71752518 15.0454924 0.70081268 16.28713654 0.68359375 17.56640625 C0.66281265 18.83016586 0.64203156 20.09392548 0.62062073 21.39598083 C0.56616286 24.76118633 0.5159572 28.12640173 0.46777344 31.49169922 C0.41760241 34.92355901 0.36189345 38.35532831 0.30664062 41.78710938 C0.19929809 48.52466761 0.09755675 55.26229336 0 62 C-0.33 62 -0.66 62 -1 62 C-1.02312764 54.06386213 -1.04091723 46.12773824 -1.05181217 38.19157505 C-1.05704008 34.50685502 -1.06413605 30.82215797 -1.07543945 27.13745117 C-1.08627162 23.58429169 -1.09227753 20.03115437 -1.09487724 16.47797966 C-1.0967309 15.11954334 -1.10035038 13.76110829 -1.10573006 12.40268135 C-1.11294475 10.50617777 -1.11340809 8.60965207 -1.11352539 6.71313477 C-1.115746 5.63169693 -1.11796661 4.55025909 -1.12025452 3.43605042 C-1 1 -1 1 0 0 Z " fill="#89BE5C" transform="translate(193,137)"/>
<path d="M0 0 C0.33 0 0.66 0 1 0 C1 6.93 1 13.86 1 21 C-4 21 -4 21 -6.75 18.6875 C-9 16 -9 16 -10 13 C-8.68 13 -7.36 13 -6 13 C-6 14.32 -6 15.64 -6 17 C-4.35 16.67 -2.7 16.34 -1 16 C-0.67 10.72 -0.34 5.44 0 0 Z " fill="#5BA330" transform="translate(68,191)"/>
<path d="M0 0 C1.60725635 3.21451269 1.05748185 6.43612536 1 10 C1.5775 9.67 2.155 9.34 2.75 9 C5 8 5 8 9 8 C9 6.35 9 4.7 9 3 C9.33 3 9.66 3 10 3 C10 6.3 10 9.6 10 13 C2.28515625 13.09765625 2.28515625 13.09765625 0 13 C-1 12 -1 12 -1.1328125 9.53125 C-1.13023438 8.5309375 -1.12765625 7.530625 -1.125 6.5 C-1.12757812 5.4996875 -1.13015625 4.499375 -1.1328125 3.46875 C-1 1 -1 1 0 0 Z " fill="#316925" transform="translate(80,205)"/>
<path d="M0 0 C3.45176554 1.40273876 4.81058146 2.83751737 6.625 6.0625 C8.2426718 9.1157672 8.2426718 9.1157672 11 11 C11 11.66 11 12.32 11 13 C14.63 13 18.26 13 22 13 C22 13.66 22 14.32 22 15 C10.95771493 15.78129376 10.95771493 15.78129376 7.625 13.0625 C6.820625 11.5465625 6.820625 11.5465625 6 10 C4.92587613 8.41040462 3.84188565 6.82744771 2.75 5.25 C0 1.13861386 0 1.13861386 0 0 Z " fill="#C3DDA8" transform="translate(212,112)"/>
<path d="M0 0 C0.33 0.33 0.66 0.66 1 1 C3.32817964 1.36760731 5.6618385 1.70241581 8 2 C8 2.66 8 3.32 8 4 C8.99 4 9.98 4 11 4 C11.33 4.99 11.66 5.98 12 7 C8.08679669 6.30173324 4.40559462 5.22128472 0.625 4 C-3.94915676 2.56700651 -8.23255652 1.44348311 -13 1 C-13 0.67 -13 0.34 -13 0 C-11.39679026 -0.19551338 -9.79237014 -0.38111983 -8.1875 -0.5625 C-7.29417969 -0.66691406 -6.40085938 -0.77132812 -5.48046875 -0.87890625 C-3 -1 -3 -1 0 0 Z " fill="#D5E8BA" transform="translate(172,82)"/>
<path d="M0 0 C1.32 0.33 2.64 0.66 4 1 C2.68 1.33 1.36 1.66 0 2 C0 1.34 0 0.68 0 0 Z M10 2 C7.41879025 4.58120975 4.9172628 5.29614708 1.5 6.5625 C-2.81538355 8.13062045 -2.81538355 8.13062045 -7 10 C-7.33 9.01 -7.66 8.02 -8 7 C-7.34 6.67 -6.68 6.34 -6 6 C-5.34 6.33 -4.68 6.66 -4 7 C-4 6.34 -4 5.68 -4 5 C-3.34 5 -2.68 5 -2 5 C-2 4.01 -2 3.02 -2 2 C2.3164922 1.23826608 5.74433453 0.83936396 10 2 Z " fill="#A6CF6A" transform="translate(119,82)"/>
<path d="M0 0 C-0.75 2.4375 -0.75 2.4375 -2 5 C-3.75 5.6875 -3.75 5.6875 -6 6 C-11.01263027 7.22530962 -13.78428635 9.31928798 -17.38671875 12.85546875 C-17.91910156 13.23316406 -18.45148438 13.61085938 -19 14 C-19.99 13.67 -20.98 13.34 -22 13 C-5.33333333 0 -5.33333333 0 0 0 Z " fill="#C7DDC2" transform="translate(113,75)"/>
<path d="M0 0 C0.33 0.66 0.66 1.32 1 2 C-1.98334854 7.01202555 -5.43951988 10.38748484 -10 14 C-9.43096831 10.01677818 -8.40909043 7.23981127 -6 4 C-2.8125 1.6875 -2.8125 1.6875 0 0 Z " fill="#70BA5E" transform="translate(63,157)"/>
<path d="M0 0 C1.98 0 3.96 0 6 0 C7.875 2 7.875 2 9 4 C8.34 4.66 7.68 5.32 7 6 C6.34 4.68 5.68 3.36 5 2 C4.01 2.66 3.02 3.32 2 4 C1.61615491 6.93597539 1.396157 9.68027373 1.3125 12.625 C1.27833984 13.42679688 1.24417969 14.22859375 1.20898438 15.0546875 C1.12643122 17.03596318 1.06154084 19.01796037 1 21 C0.67 21 0.34 21 0 21 C0 14.07 0 7.14 0 0 Z " fill="#82BA5A" transform="translate(233,154)"/>
<path d="M0 0 C3.3 0 6.6 0 10 0 C10.33 1.65 10.66 3.3 11 5 C7.7 5 4.4 5 1 5 C1 4.34 1 3.68 1 3 C0.34 2.67 -0.32 2.34 -1 2 C-0.67 1.34 -0.34 0.68 0 0 Z " fill="#77BB43" transform="translate(222,120)"/>
<path d="M0 0 C0.33 0 0.66 0 1 0 C1.0990914 4.05664947 1.17157106 8.1128277 1.21972656 12.17041016 C1.23980642 13.5497668 1.26707666 14.92903869 1.30175781 16.30810547 C1.35042817 18.29356979 1.37086418 20.27966254 1.390625 22.265625 C1.41157227 23.45961914 1.43251953 24.65361328 1.45410156 25.88378906 C0.9118833 29.60468904 -0.04528241 30.75386746 -3 33 C-5.78142043 33.50755847 -8.1457229 33.19028514 -11 33 C-11 32.67 -11 32.34 -11 32 C-9.906875 31.896875 -8.81375 31.79375 -7.6875 31.6875 C-3.51892003 30.9800327 -3.51892003 30.9800327 -1 28 C-0.49281944 25.0011387 -0.49281944 25.0011387 -0.48828125 21.58203125 C-0.45283203 20.32841797 -0.41738281 19.07480469 -0.38085938 17.78320312 C-0.35830078 16.47287109 -0.33574219 15.16253906 -0.3125 13.8125 C-0.27932334 12.47717987 -0.24483334 11.14189168 -0.20898438 9.80664062 C-0.12637943 6.53784496 -0.05726771 3.26932188 0 0 Z " fill="#E9EDE6" transform="translate(205,196)"/>
<path d="M0 0 C0 4.06447787 -0.97918272 6.47986667 -3 10 C-6.6875 10.9375 -6.6875 10.9375 -10 11 C-9.03049703 7.73894457 -8.44238139 6.29492093 -5.5625 4.375 C-4.716875 3.92125 -3.87125 3.4675 -3 3 C-1.24850835 1.41754725 -1.24850835 1.41754725 0 0 Z " fill="#7DC25A" transform="translate(80,107)"/>
<path d="M0 0 C7.0516156 -0.40509281 13.46182064 0.12055939 20 3 C20.33 3.66 20.66 4.32 21 5 C18.4363053 4.71681868 15.87438474 4.42377507 13.3125 4.125 C12.59126953 4.04636719 11.87003906 3.96773438 11.12695312 3.88671875 C7.11484068 3.4103949 3.70024488 2.73699858 0 1 C0 0.67 0 0.34 0 0 Z " fill="#D7E8BB" transform="translate(164,68)"/>
<path d="M0 0 C1.32 0.99 2.64 1.98 4 3 C4.66 2.67 5.32 2.34 6 2 C5.67 3.65 5.34 5.3 5 7 C2.69 7 0.38 7 -2 7 C-2.33 6.01 -2.66 5.02 -3 4 C-2.34 4 -1.68 4 -1 4 C-0.67 2.68 -0.34 1.36 0 0 Z " fill="#639F32" transform="translate(104,221)"/>
<path d="M0 0 C5.85272256 0.45020943 10.08220119 3.03839227 15 6 C11.62103629 6.95821359 9.41222148 7.01444422 6 6 C5.67 5.34 5.34 4.68 5 4 C1.97065509 3.34227572 1.97065509 3.34227572 -1 3 C-0.67 2.01 -0.34 1.02 0 0 Z " fill="#ABD073" transform="translate(179,72)"/>
<path d="M0 0 C0.66 0 1.32 0 2 0 C2.33 1.32 2.66 2.64 3 4 C2.05125 4.226875 1.1025 4.45375 0.125 4.6875 C-3.19323388 5.69083714 -3.19323388 5.69083714 -4.375 8.625 C-4.58125 9.40875 -4.7875 10.1925 -5 11 C-5.33 11 -5.66 11 -6 11 C-6.36521739 5.52173913 -6.36521739 5.52173913 -4.6875 3.125 C-3 2 -3 2 0 2 C0 1.34 0 0.68 0 0 Z " fill="#82C252" transform="translate(106,136)"/>
<path d="M0 0 C2.64 0 5.28 0 8 0 C8.33 0.99 8.66 1.98 9 3 C11.00016466 4.20882096 11.00016466 4.20882096 13 5 C13 5.99 13 6.98 13 8 C8.27626146 6.37621488 4.05818166 3.89006982 0 1 C0 0.67 0 0.34 0 0 Z " fill="#CEE2B2" transform="translate(184,89)"/>
<path d="M0 0 C4.40717044 1.35254541 6.20110614 3.07421579 8.75 6.875 C9.34296875 7.73867187 9.9359375 8.60234375 10.546875 9.4921875 C11.84815665 11.73794777 12.55220656 13.46643183 13 16 C9.72937988 12.9629956 7.45214833 9.71537626 5 6 C3.37892692 3.95624024 1.69819452 1.98122694 0 0 Z " fill="#E8EEE4" transform="translate(239,154)"/>
<path d="M0 0 C2.31 0 4.62 0 7 0 C4.53846154 4.8 4.53846154 4.8 1.8125 5.8125 C1.214375 5.874375 0.61625 5.93625 0 6 C0 4.02 0 2.04 0 0 Z " fill="#74B757" transform="translate(194,136)"/>
<path d="M0 0 C-0.33 4.95 -0.66 9.9 -1 15 C-1.33 15 -1.66 15 -2 15 C-2 10.38 -2 5.76 -2 1 C-3.98 1 -5.96 1 -8 1 C-5 -1 -5 -1 0 0 Z " fill="#DEEADA" transform="translate(72,153)"/>
<path d="M0 0 C1.63001953 0.01353516 1.63001953 0.01353516 3.29296875 0.02734375 C4.12441406 0.03894531 4.95585937 0.05054687 5.8125 0.0625 C5.8125 0.3925 5.8125 0.7225 5.8125 1.0625 C3.54389163 1.5929408 1.27251511 2.11155434 -1 2.625 C-2.89685547 3.06005859 -2.89685547 3.06005859 -4.83203125 3.50390625 C-8.1875 4.0625 -8.1875 4.0625 -11.1875 3.0625 C-10.5275 3.0625 -9.8675 3.0625 -9.1875 3.0625 C-9.1875 2.4025 -9.1875 1.7425 -9.1875 1.0625 C-5.90230525 -0.03256492 -3.45086585 -0.03710608 0 0 Z " fill="#E2EED0" transform="translate(138.1875,81.9375)"/>
<path d="M0 0 C3.85205198 1.47703954 5.25475324 3.48702291 7.3125 7 C7.84488281 7.886875 8.37726563 8.77375 8.92578125 9.6875 C9.45751953 10.8321875 9.45751953 10.8321875 10 12 C9.67 12.66 9.34 13.32 9 14 C7.6827656 12.23268551 6.37136412 10.46102239 5.0625 8.6875 C4.33160156 7.70136719 3.60070312 6.71523437 2.84765625 5.69921875 C1 3 1 3 0 0 Z " fill="#D9E6CD" transform="translate(212,112)"/>
<path d="M0 0 C4.57478244 2.0214155 7.61831569 4.31993178 11 8 C7.21472479 7.48847632 5.55891312 6.79154158 3 4 C2.01 3.67 1.02 3.34 0 3 C0 2.01 0 1.02 0 0 Z " fill="#A5CC73" transform="translate(197,80)"/>
<path d="M0 0 C0.66 0.33 1.32 0.66 2 1 C1.34 6.61 0.68 12.22 0 18 C-0.33 18 -0.66 18 -1 18 C-1.02707139 15.75006641 -1.04642829 13.50003905 -1.0625 11.25 C-1.07410156 9.99703125 -1.08570313 8.7440625 -1.09765625 7.453125 C-1.02021027 4.71463499 -0.82780815 2.58119707 0 0 Z " fill="#72AF47" transform="translate(214,159)"/>
<path d="M0 0 C2.99324263 1.0975223 3.84610901 1.67682892 5.25 4.625 C5.4975 5.40875 5.745 6.1925 6 7 C4.68 6.67 3.36 6.34 2 6 C2 5.34 2 4.68 2 4 C1.34 4 0.68 4 0 4 C-0.33 3.01 -0.66 2.02 -1 1 C-0.67 0.67 -0.34 0.34 0 0 Z " fill="#8BC04F" transform="translate(216,96)"/>
<path d="M0 0 C0.33 1.32 0.66 2.64 1 4 C-2.3 4 -5.6 4 -9 4 C-8 2 -8 2 -6.125 1.375 C-4 1 -4 1 -1 1 C-0.67 0.67 -0.34 0.34 0 0 Z " fill="#276121" transform="translate(223,214)"/>
<path d="M0 0 C0.33 0.99 0.66 1.98 1 3 C-0.4375 5.6875 -0.4375 5.6875 -2 8 C-2.66 7.34 -3.32 6.68 -4 6 C-3.8125 4 -3.8125 4 -3 2 C-2.01 1.34 -1.02 0.68 0 0 Z " fill="#529C2E" transform="translate(249,195)"/>
<path d="M0 0 C1.32 0 2.64 0 4 0 C4 2 4 2 1.5 4.625 C0.675 5.40875 -0.15 6.1925 -1 7 C-1.66 6.67 -2.32 6.34 -3 6 C-2.01 4.02 -1.02 2.04 0 0 Z " fill="#6CB34C" transform="translate(65,155)"/>
<path d="M0 0 C1.65 0.99 3.3 1.98 5 3 C4.67 3.99 4.34 4.98 4 6 C2.02 5.34 0.04 4.68 -2 4 C-1.34 2.68 -0.68 1.36 0 0 Z " fill="#9BCA5E" transform="translate(208,88)"/>
<path d="M0 0 C1.9814066 2.9721099 2.7434556 4.49389321 3 8 C2.01 9.32 1.02 10.64 0 12 C0 8.04 0 4.08 0 0 Z " fill="#5AA132" transform="translate(100,212)"/>
<path d="M0 0 C4.35522853 0.50642192 7.44239635 1.38411497 11 4 C11 4.66 11 5.32 11 6 C6.49197399 4.74194623 3.5087188 3.09592835 0 0 Z " fill="#E6F0D5" transform="translate(185,73)"/>
<path d="M0 0 C1.32 0.99 2.64 1.98 4 3 C4.66 2.67 5.32 2.34 6 2 C6 2.99 6 3.98 6 5 C3.69 4.67 1.38 4.34 -1 4 C-0.67 2.68 -0.34 1.36 0 0 Z " fill="#4EA22A" transform="translate(104,221)"/>
<path d="M0 0 C0.66 0 1.32 0 2 0 C2.33 1.65 2.66 3.3 3 5 C0.69 4.67 -1.62 4.34 -4 4 C-2.68 3.67 -1.36 3.34 0 3 C0 2.01 0 1.02 0 0 Z " fill="#72B838" transform="translate(230,120)"/>
<path d="M0 0 C0.33 0.66 0.66 1.32 1 2 C0.01 2.33 -0.98 2.66 -2 3 C-2.33 3.66 -2.66 4.32 -3 5 C-6.0625 5.625 -6.0625 5.625 -9 6 C-9 5.34 -9 4.68 -9 4 C-7.68 4 -6.36 4 -5 4 C-4.67 3.01 -4.34 2.02 -4 1 C-1.9375 0.3125 -1.9375 0.3125 0 0 Z " fill="#95CC6E" transform="translate(124,73)"/>
<path d="M0 0 C0.33 0.99 0.66 1.98 1 3 C4.51190809 4.22969878 4.51190809 4.22969878 8 5 C8 5.33 8 5.66 8 6 C5.125 6.125 5.125 6.125 2 6 C1.34 5.34 0.68 4.68 0 4 C0 2.68 0 1.36 0 0 Z " fill="#65A239" transform="translate(193,222)"/>
<path d="M0 0 C1.98 0 3.96 0 6 0 C6 0.66 6 1.32 6 2 C4.02 2.99 2.04 3.98 0 5 C0 3.35 0 1.7 0 0 Z " fill="#7BB75F" transform="translate(100,136)"/>
<path d="M0 0 C2.62386487 3.06117568 3 3.73173127 3 8 C2.34 8 1.68 8 1 8 C0.87625 7.195625 0.7525 6.39125 0.625 5.5625 C0.315625 4.2940625 0.315625 4.2940625 0 3 C-0.66 2.67 -1.32 2.34 -2 2 C-1.34 1.34 -0.68 0.68 0 0 Z " fill="#89BD57" transform="translate(232,117)"/>
<path d="M0 0 C2.66735273 2.48952921 4.55746343 4.63408134 6 8 C4.35 7.67 2.7 7.34 1 7 C0.67 4.69 0.34 2.38 0 0 Z " fill="#94C166" transform="translate(221,100)"/>
<path d="M0 0 C0.625 1.875 0.625 1.875 1 4 C0.34 4.66 -0.32 5.32 -1 6 C-1.99 6 -2.98 6 -4 6 C-2.84826645 3.53199953 -1.95216435 1.95216435 0 0 Z " fill="#8CC276" transform="translate(77,106)"/>
<path d="M0 0 C0.33 0.66 0.66 1.32 1 2 C-0.32 3.65 -1.64 5.3 -3 7 C-3.99 6.67 -4.98 6.34 -6 6 C-4.02 4.02 -2.04 2.04 0 0 Z " fill="#E3EDD6" transform="translate(100,100)"/>
</svg>
