<?xml version="1.0" encoding="UTF-8"?>
<svg version="1.1" xmlns="http://www.w3.org/2000/svg" width="250" height="250">
<path d="M0 0 C82.5 0 165 0 250 0 C250 82.5 250 165 250 250 C167.5 250 85 250 0 250 C0 167.5 0 85 0 0 Z " fill="#000000" transform="translate(0,0)"/>
<path d="M0 0 C1.08452283 0.79572638 2.16916826 1.5912857 3.25390625 2.38671875 C4.42057645 3.25606309 5.58594255 4.12716028 6.75 5 C7.29358154 5.40323486 7.83716309 5.80646973 8.3972168 6.22192383 C12.21689676 9.14734861 15.02738658 12.26477895 18 16 C18.680625 16.66 19.36125 17.32 20.0625 18 C23.25671428 21.29725345 26 24.3008711 26 29 C26.66 29 27.32 29 28 29 C30.0054804 33.35974 31.53945369 37.16426376 32 42 C30.19964755 43.80035245 27.75528244 43.46274877 25.3125 43.625 C19.64351284 43.57809349 19.64351284 43.57809349 17.1171875 41.30859375 C15.60450146 38.93210611 14.30785415 36.49440009 13 34 C0.67740933 16.44695717 -16.13293264 5.11833728 -37 0 C-55.59220826 -3.17996721 -75.91602607 -0.37102103 -92.00390625 9.921875 C-96.72631802 13.26717868 -101.07473472 16.72838778 -105 21 C-105.804375 21.78375 -106.60875 22.5675 -107.4375 23.375 C-112.10406262 28.15538122 -115.70988243 32.38499783 -118.625 38.4375 C-120.08203125 41.015625 -120.08203125 41.015625 -122 43 C-126.12057299 43.91924586 -129.85701206 43.74096985 -134 43 C-135 42 -135 42 -135.25390625 39.30078125 C-134.30194051 26.92522665 -120.78927596 13.94892199 -112 6 C-80.99419161 -20.44081328 -33.35674087 -25.25989095 0 0 Z " fill="#A3D56A" transform="translate(177,57)"/>
<path d="M0 0 C2.19129944 1.00598145 2.19129944 1.00598145 4 3 C4.39696506 5.88567387 4.5366886 8.39200274 4.50170898 11.27929688 C4.50711197 12.12347672 4.51251495 12.96765656 4.51808167 13.8374176 C4.53060252 16.63155028 4.51405595 19.42465928 4.49609375 22.21875 C4.49624866 24.15783747 4.49773631 26.09692525 4.50050354 28.03601074 C4.50188904 32.10145746 4.48930428 36.16655203 4.46655273 40.23193359 C4.4381677 45.4477591 4.44090344 50.66299928 4.45364285 55.8788681 C4.46059192 59.88341283 4.45281957 63.88782184 4.44038582 67.89234924 C4.43586381 69.81571431 4.43554104 71.73909392 4.43945122 73.66246033 C4.44235589 76.34884597 4.42589244 79.03441994 4.40405273 81.72070312 C4.40855438 82.51871841 4.41305603 83.3167337 4.41769409 84.13893127 C4.3452039 89.49498711 4.3452039 89.49498711 2.65834045 91.96276855 C0.09680016 93.56491855 -1.99915592 93.87751657 -5 94 C-8.16748634 92.28784522 -8.84578536 91.46264391 -10 88 C-10.10656174 85.29311867 -10.15724941 82.61160421 -10.16113281 79.90429688 C-10.16609772 79.07962418 -10.17106262 78.25495148 -10.17617798 77.4052887 C-10.19078748 74.676434 -10.19759842 71.94763738 -10.203125 69.21875 C-10.208876 67.32450356 -10.21463374 65.43025714 -10.22039795 63.53601074 C-10.23090348 59.56485726 -10.23674956 55.59372401 -10.24023438 51.62255859 C-10.24572818 46.52786553 -10.26977695 41.4334385 -10.29820633 36.33882904 C-10.31680245 32.42697357 -10.32203662 28.51518269 -10.32357025 24.60328674 C-10.32660251 22.72455892 -10.33465023 20.84583239 -10.34775543 18.96714783 C-10.36475817 16.34312469 -10.36295037 13.71975857 -10.35644531 11.09570312 C-10.3656601 10.31638931 -10.37487488 9.5370755 -10.3843689 8.73414612 C-10.34376522 3.52127267 -10.34376522 3.52127267 -8.69256592 1.01745605 C-5.7940645 -0.72492679 -3.27982773 -0.34524502 0 0 Z " fill="#64A434" transform="translate(82,109)"/>
<path d="M0 0 C1.69058228 1.01271057 1.69058228 1.01271057 3 3 C3.29616385 5.79777923 3.40977574 8.37303127 3.38818359 11.17163086 C3.39344055 12.00445084 3.39869751 12.83727081 3.40411377 13.69532776 C3.41733191 16.45202314 3.40856856 19.20814235 3.3984375 21.96484375 C3.40045791 23.87911592 3.40336907 25.79338733 3.40713501 27.70765686 C3.41156098 31.72176432 3.40511924 35.73567164 3.39111328 39.74975586 C3.3740328 44.8959623 3.38385367 50.041699 3.40183067 55.18788815 C3.41267098 59.1418461 3.40922083 63.0956927 3.4014473 67.04965401 C3.39944537 68.94707863 3.40190428 70.84451336 3.40888596 72.74192619 C3.41650318 75.39454801 3.40489206 78.04640943 3.38818359 80.69897461 C3.39729263 81.87657852 3.39729263 81.87657852 3.40658569 83.07797241 C3.36857922 86.33424505 3.21399495 88.62092329 1.59683228 91.48561096 C-0.36866856 93.34963448 -1.3183444 93.54063115 -4 93.5 C-5.0209375 93.51546875 -5.0209375 93.51546875 -6.0625 93.53125 C-8 93 -8 93 -9.59584045 91.48561096 C-11.58423452 87.96580148 -11.42662381 84.6352791 -11.40405273 80.69897461 C-11.41434761 79.44711617 -11.41434761 79.44711617 -11.42485046 78.16996765 C-11.44313848 75.41391955 -11.439279 72.65843945 -11.43359375 69.90234375 C-11.43815381 67.98710443 -11.44345886 66.07186676 -11.44947815 64.15663147 C-11.45841259 60.14431099 -11.4559814 56.13218953 -11.44604492 52.11987305 C-11.43454067 46.97237999 -11.4547873 41.82557142 -11.48396206 36.6781683 C-11.50228427 32.72424442 -11.50203981 28.77048589 -11.49632454 24.81653023 C-11.49617091 22.91826986 -11.50224931 21.01999858 -11.51461601 19.12177849 C-11.5294535 16.47128838 -11.51890398 13.82208016 -11.50170898 11.17163086 C-11.51137695 10.38453735 -11.52104492 9.59744385 -11.53100586 8.78649902 C-11.45905587 3.50438248 -11.45905587 3.50438248 -9.19129944 1.01271057 C-5.98112385 -0.47087433 -3.48392886 -0.38006497 0 0 Z " fill="#5FA334" transform="translate(176,109)"/>
<path d="M0 0 C0 0.66 0 1.32 0 2 C-0.89203125 2.09796875 -1.7840625 2.1959375 -2.703125 2.296875 C-3.87359375 2.44640625 -5.0440625 2.5959375 -6.25 2.75 C-7.99023438 2.95882812 -7.99023438 2.95882812 -9.765625 3.171875 C-13.38929274 4.09967399 -14.68826547 5.12123624 -17 8 C-18.23512079 10.13309192 -18.23512079 10.13309192 -19 12 C-19.66 12 -20.32 12 -21 12 C-20.7525 12.9590625 -20.7525 12.9590625 -20.5 13.9375 C-20 16 -20 16 -20 17 C-19.34 17.33 -18.68 17.66 -18 18 C-18 17.34 -18 16.68 -18 16 C-11.565 15.505 -11.565 15.505 -5 15 C-8.27536698 16.63768349 -11.15805019 17.73765408 -14.625 18.8125 C-28.72317095 23.48913298 -40.79988335 31.19393898 -50 43 C-50.60585937 43.74378906 -51.21171875 44.48757812 -51.8359375 45.25390625 C-55.35788938 49.64520068 -58.35672729 54.0306473 -61 59 C-62.97909398 59.02686553 -64.95828971 59.04633375 -66.9375 59.0625 C-68.03964844 59.07410156 -69.14179687 59.08570313 -70.27734375 59.09765625 C-73 59 -73 59 -74 58 C-74.88769509 48.56311837 -67.56026287 40.15522925 -61.86328125 33.14453125 C-46.81689891 15.82699686 -23.9069297 0 0 0 Z " fill="#9CD665" transform="translate(116,41)"/>
<path d="M0 0 C7.6069457 1.08670653 10.1447998 2.45588626 15 8 C16.71626704 10.85472418 18 13.60276439 18 17 C18.66 17 19.32 17 20 17 C22.2545707 24.6091761 23.07521882 32.21792944 21 40 C20.34 40 19.68 40 19 40 C18.87882812 40.73347656 18.75765625 41.46695313 18.6328125 42.22265625 C17.06996772 49.08180833 13.12477754 54.39507732 7.94140625 59.00390625 C6 60 6 60 0 60 C0 40.2 0 20.4 0 0 Z " fill="#59A52F" transform="translate(206,127)"/>
<path d="M0 0 C4.29 0 8.58 0 13 0 C13 24.09 13 48.18 13 73 C8.71 73 4.42 73 0 73 C0 48.91 0 24.82 0 0 Z " fill="#4E992E" transform="translate(52,119)"/>
<path d="M0 0 C0 19.8 0 39.6 0 60 C-7 59 -7 59 -9.29296875 56.9609375 C-9.91816406 56.10757813 -10.54335938 55.25421875 -11.1875 54.375 C-11.85265625 53.47265625 -12.5178125 52.5703125 -13.203125 51.640625 C-19.95156773 41.72334829 -21.18385784 32.85754175 -20 21 C-17.94333659 12.00084353 -13.42749166 6.32619736 -6 1 C-4 0 -4 0 0 0 Z " fill="#67B537" transform="translate(44,127)"/>
<path d="M0 0 C4.29 0 8.58 0 13 0 C13.02511361 6.73624412 13.04305108 13.47245975 13.05493164 20.20874023 C13.05989543 22.4903206 13.06666864 24.77189789 13.07543945 27.0534668 C13.11916883 38.7395007 13.0883814 50.40593071 12.55859375 62.08203125 C12.51960464 62.97371506 12.48061554 63.86539886 12.44044495 64.78410339 C12.12663757 70.87336243 12.12663757 70.87336243 11 72 C8.32941149 72.14115161 5.67567762 72.04247107 3 72 C0.34422157 61.19983438 -0.15063663 50.64373624 -0.09765625 39.55078125 C-0.09553383 37.84283638 -0.09553383 37.84283638 -0.09336853 36.10038757 C-0.08782209 32.50439702 -0.07527989 28.90847137 -0.0625 25.3125 C-0.05747807 22.85742278 -0.05291638 20.40234458 -0.04882812 17.94726562 C-0.03787027 11.96481918 -0.02064327 5.98242055 0 0 Z " fill="#4B8B2C" transform="translate(186,119)"/>
<path d="M0 0 C6.28960833 3.28153478 11.56598413 7.46029708 17 12 C17.73992187 12.61488281 18.47984375 13.22976562 19.2421875 13.86328125 C25.16909016 18.90673993 29.96875365 24.28125608 34 31 C34 31.99 34 32.98 34 34 C34.66 34 35.32 34 36 34 C38.0054804 38.35974 39.53945369 42.16426376 40 47 C38.19964755 48.80035245 35.75528244 48.46274877 33.3125 48.625 C27.64351284 48.57809349 27.64351284 48.57809349 25.1171875 46.30859375 C23.60450146 43.93210611 22.30785415 41.49440009 21 39 C14.64488905 29.94739591 7.42914163 22.64312186 -1.80078125 16.54296875 C-3.77004953 15.16133293 -5.36862687 13.75808172 -7 12 C-5.02 11.67 -3.04 11.34 -1 11 C-1.33 10.01 -1.66 9.02 -2 8 C-0.02 7.01 1.96 6.02 4 5 C3.34 4.67 2.68 4.34 2 4 C2 3.34 2 2.68 2 2 C1.34 2 0.68 2 0 2 C0 1.34 0 0.68 0 0 Z " fill="#82BB4B" transform="translate(169,52)"/>
<path d="M0 0 C0.33 1.32 0.66 2.64 1 4 C-0.32 4.33 -1.64 4.66 -3 5 C-3.33 6.65 -3.66 8.3 -4 10 C-4.99 10.33 -5.98 10.66 -7 11 C-8.17138134 14.43315137 -8.17138134 14.43315137 -9 18 C-9.33 18.66 -9.66 19.32 -10 20 C-9.01 20 -8.02 20 -7 20 C-6.278125 19.278125 -5.55625 18.55625 -4.8125 17.8125 C-0.61669352 13.61669352 4.13270019 10.91667445 9.4375 8.3125 C12.11710613 7.25929199 12.11710613 7.25929199 13 5 C13.99 5 14.98 5 16 5 C16.33 4.01 16.66 3.02 17 2 C17.99 2 18.98 2 20 2 C18.72289599 5.83131202 17.19288632 6.45900142 13.875 8.6875 C8.74483035 12.31971314 4.85878802 16.07190927 1 21 C0.39285156 21.74507812 -0.21429688 22.49015625 -0.83984375 23.2578125 C-4.35966282 27.64828449 -7.35763236 32.03234884 -10 37 C-11.97909398 37.02686553 -13.95828971 37.04633375 -15.9375 37.0625 C-17.03964844 37.07410156 -18.14179687 37.08570313 -19.27734375 37.09765625 C-22 37 -22 37 -23 36 C-23.88792 26.56072742 -16.56910297 18.21792191 -10.91015625 11.1796875 C-7.47141908 7.25572975 -3.7636861 3.61006626 0 0 Z " fill="#81C34A" transform="translate(65,63)"/>
<path d="M0 0 C3.3 1.65 6.6 3.3 10 5 C10 5.66 10 6.32 10 7 C10.66 7 11.32 7 12 7 C12 7.66 12 8.32 12 9 C12.99 9.33 13.98 9.66 15 10 C13.04783565 11.95216435 11.46800047 12.84826645 9 14 C9 14.66 9 15.32 9 16 C2.69225219 17.21383801 -0.98943253 16.74002834 -6.8125 14.1875 C-17.78168423 9.75242078 -28.20054969 8.65456805 -40 8 C-40 7.67 -40 7.34 -40 7 C-21.96045198 6.82485876 -21.96045198 6.82485876 -13 8 C-10.65834811 8.07454697 -8.34337574 8.04985906 -6 8 C-5.9175 7.38125 -5.835 6.7625 -5.75 6.125 C-5 4 -5 4 -3 2.875 C-2.34 2.58625 -1.68 2.2975 -1 2 C-0.67 1.34 -0.34 0.68 0 0 Z " fill="#9AC860" transform="translate(159,47)"/>
<path d="M0 0 C0.33 0 0.66 0 1 0 C1.01030746 0.65208939 1.02061493 1.30417877 1.03123474 1.97602844 C1.14001023 8.80645348 1.25454353 15.63676529 1.37231445 22.46704102 C1.41543723 25.01096206 1.45712666 27.55490785 1.49731445 30.09887695 C1.55557009 33.77042067 1.61910084 37.44184242 1.68359375 41.11328125 C1.70030624 42.23769119 1.71701874 43.36210114 1.73423767 44.52058411 C1.90479729 53.75857734 2.57960607 62.86889618 4 72 C6.97 71.505 6.97 71.505 10 71 C11.2068731 47.35042278 11.54305159 23.67316013 12 0 C12.33 0 12.66 0 13 0 C13 24.09 13 48.18 13 73 C8.71 73 4.42 73 0 73 C0 48.91 0 24.82 0 0 Z " fill="#31551F" transform="translate(52,119)"/>
<path d="M0 0 C0 0.66 0 1.32 0 2 C-0.88042969 2.08636719 -1.76085937 2.17273437 -2.66796875 2.26171875 C-11.49934226 3.25423769 -11.49934226 3.25423769 -18 9 C-19.32689727 9.35809571 -20.66136659 9.68863289 -22 10 C-24.06399069 11.06815057 -24.06399069 11.06815057 -26.0625 12.375 C-26.73410156 12.79523437 -27.40570313 13.21546875 -28.09765625 13.6484375 C-30.02713921 14.92710574 -30.02713921 14.92710574 -31.4921875 16.57421875 C-33.27543095 18.26044637 -34.72695437 18.73465356 -37.0625 19.4375 C-40.32937808 20.53217814 -40.32937808 20.53217814 -42.5 23.1875 C-42.7475 24.0846875 -42.7475 24.0846875 -43 25 C-43.66 24.34 -44.32 23.68 -45 23 C-44.67 22.34 -44.34 21.68 -44 21 C-45.65 21.33 -47.3 21.66 -49 22 C-43.62152862 16.467858 -38.37660982 12.4060708 -31.5 9 C-30.79875 8.65187256 -30.0975 8.30374512 -29.375 7.94506836 C-20.15689175 3.4873532 -10.35233147 0 0 0 Z M-43 18 C-42.67 18.66 -42.34 19.32 -42 20 C-41.67 19.34 -41.34 18.68 -41 18 C-41.66 18 -42.32 18 -43 18 Z " fill="#90C276" transform="translate(116,41)"/>
<path d="M0 0 C0.99 0.495 0.99 0.495 2 1 C1.01 1.495 1.01 1.495 0 2 C0 1.34 0 0.68 0 0 Z M0 3 C-0.33 3.99 -0.66 4.98 -1 6 C-1 7.32 -1 8.64 -1 10 C-2 11 -3 12 -4 13 C-4 14.32 -4 15.64 -4 17 C-4.886875 17.391875 -5.77375 17.78375 -6.6875 18.1875 C-10.11070142 19.85906295 -10.11070142 19.85906295 -12.6875 22.6875 C-13.450625 23.450625 -14.21375 24.21375 -15 25 C-15.99 25 -16.98 25 -18 25 C-18.66 25.66 -19.32 26.32 -20 27 C-19.42655063 24.13275314 -19.1385485 23.1385485 -17 21 C-16.5359375 19.5459375 -16.5359375 19.5459375 -16.0625 18.0625 C-15.01807579 15.05210081 -14.26641875 14.06933886 -12 12 C-11.67 11.01 -11.34 10.02 -11 9 C-8.9375 8.3125 -8.9375 8.3125 -7 8 C-7 6.68 -7 5.36 -7 4 C-3.375 1.875 -3.375 1.875 0 3 Z " fill="#99D767" transform="translate(73,59)"/>
<path d="M0 0 C2.33190136 2.24338197 2.95377048 3.61438946 3.34057617 6.84082031 C3.32486572 7.90913086 3.30915527 8.97744141 3.29296875 10.078125 C3.28330078 11.23828125 3.27363281 12.3984375 3.26367188 13.59375 C3.23853516 14.8003125 3.21339844 16.006875 3.1875 17.25 C3.17396484 18.47203125 3.16042969 19.6940625 3.14648438 20.953125 C3.1111398 23.96919498 3.0617956 26.98437487 3 30 C2.67 30 2.34 30 2 30 C1.67 22.08 1.34 14.16 1 6 C-0.65 5.67 -2.3 5.34 -4 5 C-4 5.66 -4 6.32 -4 7 C-4.99 7.495 -4.99 7.495 -6 8 C-7.24309235 11.95529384 -6.69903233 14.98056412 -6 19 C-6.33 19.99 -6.66 20.98 -7 22 C-6.67 22.99 -6.34 23.98 -6 25 C-5.87218214 27.67394964 -5.95608129 30.32095857 -6 33 C-7.485 33.495 -7.485 33.495 -9 34 C-9 23.11 -9 12.22 -9 1 C-5.9167365 -0.54163175 -3.39121901 -0.29747535 0 0 Z " fill="#80B450" transform="translate(82,109)"/>
<path d="M0 0 C0 19.8 0 39.6 0 60 C-7 59 -7 59 -9.3984375 56.8203125 C-10.05070312 55.93085938 -10.70296875 55.04140625 -11.375 54.125 C-12.04273438 53.24070313 -12.71046875 52.35640625 -13.3984375 51.4453125 C-15 49 -15 49 -16 46 C-15.01 46 -14.02 46 -13 46 C-11.5 48.25 -11.5 48.25 -10 51 C-8.66846734 53.30504044 -8.66846734 53.30504044 -7 55 C-5.68 55 -4.36 55 -3 55 C-1.76788052 52.53576104 -1.84220092 50.84765337 -1.79467773 48.09130859 C-1.77473251 47.07040131 -1.75478729 46.04949402 -1.73423767 44.99765015 C-1.71752518 43.89240997 -1.70081268 42.7871698 -1.68359375 41.6484375 C-1.6524221 39.95468491 -1.6524221 39.95468491 -1.62062073 38.22671509 C-1.55508665 34.60954028 -1.49622226 30.99229119 -1.4375 27.375 C-1.39431846 24.92707556 -1.35070429 22.47915872 -1.30664062 20.03125 C-1.19940133 14.0209125 -1.09764213 8.01050065 -1 2 C-1.99 2.33 -2.98 2.66 -4 3 C-4.33 3.99 -4.66 4.98 -5 6 C-7.31 6.33 -9.62 6.66 -12 7 C-5.18421053 0 -5.18421053 0 0 0 Z " fill="#4F8B27" transform="translate(44,127)"/>
<path d="M0 0 C0.33 0 0.66 0 1 0 C1 23.76 1 47.52 1 72 C-1.76452033 73.38226016 -4.0461363 73.09525387 -7.125 73.0625 C-10.033125 73.0315625 -10.033125 73.0315625 -13 73 C-13 66.07 -13 59.14 -13 52 C-12.67 52 -12.34 52 -12 52 C-11.34 58.6 -10.68 65.2 -10 72 C-7.36 71.67 -4.72 71.34 -2 71 C-1.1448069 55.23191814 -0.71805565 39.47533962 -0.4375 23.6875 C-0.39415572 21.37434378 -0.35053736 19.06119268 -0.30664062 16.74804688 C-0.20128106 11.16541938 -0.09925279 5.58273923 0 0 Z " fill="#12210D" transform="translate(199,119)"/>
<path d="M0 0 C0.33 0 0.66 0 1 0 C1.02505615 1.15298584 1.0501123 2.30597168 1.07592773 3.49389648 C1.17158473 7.85708872 1.2713886 12.22017869 1.37231445 16.58325195 C1.41507582 18.45562311 1.45677871 20.3280188 1.49731445 22.20043945 C1.75696687 34.1540676 2.19823223 46.0698923 3 58 C9.74605173 54.74455856 12.64489769 51.54907749 15.3125 44.5625 C15.539375 43.716875 15.76625 42.87125 16 42 C16.66 42 17.32 42 18 42 C18.33 41.34 18.66 40.68 19 40 C17.70329673 47.8491932 13.83060502 53.76748614 7.94140625 59.00390625 C6 60 6 60 0 60 C0 40.2 0 20.4 0 0 Z " fill="#3B6421" transform="translate(206,127)"/>
<path d="M0 0 C3.63 0 7.26 0 11 0 C11 10.56 11 21.12 11 32 C10.67 32 10.34 32 10 32 C9.67 22.76 9.34 13.52 9 4 C7.35 4.33 5.7 4.66 4 5 C2.26878906 9.97723145 1.87504537 14.10196908 1.99609375 19.35546875 C2.00236651 23.60212882 1.50190533 27.78758027 1 32 C0.67 32 0.34 32 0 32 C0 21.44 0 10.88 0 0 Z " fill="#73B045" transform="translate(53,119)"/>
<path d="M0 0 C0.33 0.99 0.66 1.98 1 3 C0.071875 3.3403125 0.071875 3.3403125 -0.875 3.6875 C-3.61410209 5.37929835 -4.05024472 6.99244161 -5 10 C-5.99 10 -6.98 10 -8 10 C-7.98428955 10.97610229 -7.98428955 10.97610229 -7.96826172 11.97192383 C-7.92670165 14.9187433 -7.90067392 17.86550111 -7.875 20.8125 C-7.85824219 21.83666016 -7.84148437 22.86082031 -7.82421875 23.91601562 C-7.81777344 24.89892578 -7.81132812 25.88183594 -7.8046875 26.89453125 C-7.79421387 27.80050049 -7.78374023 28.70646973 -7.77294922 29.63989258 C-8 32 -8 32 -10 35 C-10.024727 30.64005933 -10.04287281 26.28015586 -10.05493164 21.92016602 C-10.05995903 20.43708587 -10.06678185 18.95401067 -10.07543945 17.47094727 C-10.08757482 15.33869199 -10.09324425 13.20650227 -10.09765625 11.07421875 C-10.10289307 9.79119873 -10.10812988 8.50817871 -10.11352539 7.1862793 C-10 4 -10 4 -9 1 C-6.04335481 -0.4783226 -3.25770263 -0.06032783 0 0 Z " fill="#7FB44B" transform="translate(176,109)"/>
<path d="M0 0 C0.33 1.32 0.66 2.64 1 4 C-0.32 4.33 -1.64 4.66 -3 5 C-3.33 6.65 -3.66 8.3 -4 10 C-4.99 10.33 -5.98 10.66 -7 11 C-7.7166207 13.31847874 -8.38242027 15.65319703 -9 18 C-9.66 18.66 -10.32 19.32 -11 20 C-11.433125 21.155 -11.86625 22.31 -12.3125 23.5 C-14 27 -14 27 -16.6875 28.4375 C-17.450625 28.623125 -18.21375 28.80875 -19 29 C-18.71125 28.443125 -18.4225 27.88625 -18.125 27.3125 C-16.9586747 24.91505355 -15.9660119 22.48403061 -15 20 C-14.34 20 -13.68 20 -13 20 C-12.731875 19.319375 -12.46375 18.63875 -12.1875 17.9375 C-11.795625 16.968125 -11.40375 15.99875 -11 15 C-10.62875 13.906875 -10.2575 12.81375 -9.875 11.6875 C-7.82468126 6.8139675 -3.83470844 3.50679988 0 0 Z M-21 29 C-20.01 29.495 -20.01 29.495 -19 30 C-19.99 30.495 -19.99 30.495 -21 31 C-21 30.34 -21 29.68 -21 29 Z " fill="#79C15E" transform="translate(65,63)"/>
<path d="M0 0 C1.98 0 3.96 0 6 0 C6.33 0.66 6.66 1.32 7 2 C6.67 2.99 6.34 3.98 6 5 C6.66 5 7.32 5 8 5 C8.33 6.32 8.66 7.64 9 9 C6.03 10.65 3.06 12.3 0 14 C0 9.38 0 4.76 0 0 Z " fill="#6CB240" transform="translate(208,129)"/>
<path d="M0 0 C0.93065133 2.60582371 1.14917407 3.64198224 0.0625 6.25 C-0.4634375 7.11625 -0.4634375 7.11625 -1 8 C-1.66 8 -2.32 8 -3 8 C-4.17379332 12.63927836 -4.14840005 17.12478976 -4.125 21.875 C-4.12886719 22.65230469 -4.13273437 23.42960937 -4.13671875 24.23046875 C-4.12883117 28.92358006 -3.77762682 33.37126895 -3 38 C-6.72582825 34.76014935 -6.91295232 32.17390017 -7.2734375 27.3125 C-7.58117006 17.92010956 -6.84483488 10.35366984 -2 2 C-1.34 1.34 -0.68 0.68 0 0 Z " fill="#517F2F" transform="translate(31,134)"/>
<path d="M0 0 C0.33 0 0.66 0 1 0 C1 8.91 1 17.82 1 27 C-3.31912995 29.15956497 -4.51900084 29.36378235 -9 28 C-10.375 25.9375 -10.375 25.9375 -11 24 C-9.68 24.33 -8.36 24.66 -7 25 C-6.67 24.01 -6.34 23.02 -6 22 C-5.34 22 -4.68 22 -4 22 C-4 22.99 -4 23.98 -4 25 C-3.01 25 -2.02 25 -1 25 C-0.67 23.68 -0.34 22.36 0 21 C-0.99 20.67 -1.98 20.34 -3 20 C-3 19.01 -3 18.02 -3 17 C-2.01 17 -1.02 17 0 17 C0 11.39 0 5.78 0 0 Z " fill="#468121" transform="translate(84,174)"/>
<path d="M0 0 C3.63 0 7.26 0 11 0 C11 1.98 11 3.96 11 6 C10.01 6 9.02 6 8 6 C7.67 5.34 7.34 4.68 7 4 C6.34 3.67 5.68 3.34 5 3 C5 2.34 5 1.68 5 1 C4.01 1.66 3.02 2.32 2 3 C1.79909311 5.639186 1.77115706 8.05710072 1.875 10.6875 C1.90791702 12.22126845 1.93646937 13.755136 1.9609375 15.2890625 C1.97350586 16.06926758 1.98607422 16.84947266 1.99902344 17.65332031 C2.00143466 23.44748568 1.47044501 29.22864785 1 35 C0.67 35 0.34 35 0 35 C0 23.45 0 11.9 0 0 Z " fill="#6FA747" transform="translate(187,119)"/>
<path d="M0 0 C0.99 0.33 1.98 0.66 3 1 C2.690625 1.598125 2.38125 2.19625 2.0625 2.8125 C0.55914601 5.90764057 -0.07488466 7.55069204 0.5 11 C1 14 1 14 0 17 C0.33 17.99 0.66 18.98 1 20 C1.12781786 22.67394964 1.04391871 25.32095857 1 28 C0.01 28.33 -0.98 28.66 -2 29 C-2 19.76 -2 10.52 -2 1 C-1.34 0.67 -0.68 0.34 0 0 Z " fill="#83B64D" transform="translate(75,114)"/>
<path d="M0 0 C-3.15891106 1.699795 -6.33064233 2.80312881 -9.75 3.875 C-14.79814352 5.51657234 -19.29713414 7.56147696 -24 10 C-24.66 10 -25.32 10 -26 10 C-25.67 8.68 -25.34 7.36 -25 6 C-24.01 6.33 -23.02 6.66 -22 7 C-22 6.34 -22 5.68 -22 5 C-22.99 4.67 -23.98 4.34 -25 4 C-21.59659693 1.90559811 -18.95562822 1.74202425 -15 2 C-14.34 2.33 -13.68 2.66 -13 3 C-13 2.34 -13 1.68 -13 1 C-8.61414671 0.29826347 -4.44209357 -0.10834375 0 0 Z " fill="#97C659" transform="translate(111,56)"/>
<path d="M0 0 C0.61328125 1.796875 0.61328125 1.796875 1 4 C-0.8125 7.25 -0.8125 7.25 -3 10 C-3.66 10 -4.32 10 -5 10 C-5.103125 10.7425 -5.20625 11.485 -5.3125 12.25 C-6.04933797 15.1973519 -6.94799142 16.78383074 -9 19 C-9.66 19 -10.32 19 -11 19 C-10.67 21.64 -10.34 24.28 -10 27 C-10.99 26.67 -11.98 26.34 -13 26 C-13.36819955 21.0366701 -12.46064652 18.34486467 -9.875 14.125 C-9.24207031 13.09117188 -8.60914063 12.05734375 -7.95703125 10.9921875 C-5.47034198 7.19018355 -2.84396393 3.5419331 0 0 Z " fill="#577F46" transform="translate(55,73)"/>
<path d="M0 0 C0.33 0 0.66 0 1 0 C1.02505615 0.76554199 1.0501123 1.53108398 1.07592773 2.31982422 C1.19303454 5.83833931 1.31523405 9.35666055 1.4375 12.875 C1.47681641 14.07898438 1.51613281 15.28296875 1.55664062 16.5234375 C1.77552042 22.71941949 2.09626038 28.84749867 2.84375 35.00390625 C3.03735053 37.47715306 2.71155745 39.62814183 2 42 C1.34 41.67 0.68 41.34 0 41 C0 27.47 0 13.94 0 0 Z " fill="#5D9C35" transform="translate(73,157)"/>
<path d="M0 0 C0.33 0 0.66 0 1 0 C1.02887512 3.64581687 1.04675585 7.29160463 1.0625 10.9375 C1.07087891 11.97841797 1.07925781 13.01933594 1.08789062 14.09179688 C1.09111328 15.08115234 1.09433594 16.07050781 1.09765625 17.08984375 C1.10289307 18.00628662 1.10812988 18.92272949 1.11352539 19.86694336 C1 22 1 22 0 23 C-4.00220653 23.14355117 -7.99441683 23.04216403 -12 23 C-12 16.07 -12 9.14 -12 2 C-11.67 2 -11.34 2 -11 2 C-10.34 8.6 -9.68 15.2 -9 22 C-5.04 21.505 -5.04 21.505 -1 21 C-0.67 14.07 -0.34 7.14 0 0 Z " fill="#22491B" transform="translate(198,169)"/>
<path d="M0 0 C0.99 0.495 0.99 0.495 2 1 C1.01 1.495 1.01 1.495 0 2 C0 1.34 0 0.68 0 0 Z M0 3 C-3.75264754 7.96387672 -7.45890328 12.73412126 -12 17 C-12.99 16.34 -13.98 15.68 -15 15 C-14.525625 14.566875 -14.05125 14.13375 -13.5625 13.6875 C-11.76313043 11.97690387 -11.76313043 11.97690387 -11 9 C-8.9375 8.3125 -8.9375 8.3125 -7 8 C-7 6.68 -7 5.36 -7 4 C-3.375 1.875 -3.375 1.875 0 3 Z " fill="#90CF7B" transform="translate(73,59)"/>
<path d="M0 0 C1.32 0 2.64 0 4 0 C3.37498605 1.68272986 2.69822617 3.34630643 2 5 C1.505 6.3921875 1.505 6.3921875 1 7.8125 C-1 10 -1 10 -3.41796875 10.3125 C-5.96374142 10.3125 -8.46382182 10.21412386 -11 10 C-11.33 8.35 -11.66 6.7 -12 5 C-11.34 5 -10.68 5 -10 5 C-10 5.99 -10 6.98 -10 8 C-7.69 8.33 -5.38 8.66 -3 9 C-3.33 8.01 -3.66 7.02 -4 6 C-3.67 5.34 -3.34 4.68 -3 4 C-2.34 4 -1.68 4 -1 4 C-0.67 2.68 -0.34 1.36 0 0 Z " fill="#78B645" transform="translate(56,90)"/>
<path d="M0 0 C0 6.93 0 13.86 0 21 C-0.33 21 -0.66 21 -1 21 C-1 14.73 -1 8.46 -1 2 C-1.99 2.33 -2.98 2.66 -4 3 C-4.33 3.99 -4.66 4.98 -5 6 C-7.31 6.33 -9.62 6.66 -12 7 C-5.18421053 0 -5.18421053 0 0 0 Z " fill="#648F41" transform="translate(44,127)"/>
<path d="M0 0 C1.65 0 3.3 0 5 0 C5.33 0.99 5.66 1.98 6 3 C4.59554165 5.2636564 2.8032087 7.0208685 1 9 C0.01 8.67 -0.98 8.34 -2 8 C-2.99 8.99 -3.98 9.98 -5 11 C-4.42655063 8.13275314 -4.1385485 7.1385485 -2 5 C-1.29289322 3.35008418 -0.62056011 1.68437744 0 0 Z " fill="#8BCF5C" transform="translate(58,75)"/>
<path d="M0 0 C0.04254356 1.99954746 0.04080783 4.00041636 0 6 C-1 7 -1 7 -2.84765625 7.09765625 C-4.8984375 7.06510417 -6.94921875 7.03255208 -9 7 C-9.33 6.34 -9.66 5.68 -10 5 C-9.34 5 -8.68 5 -8 5 C-8 4.34 -8 3.68 -8 3 C-5.35759012 1.23839341 -3.22169486 0 0 0 Z " fill="#4D9D23" transform="translate(178,194)"/>
<path d="M0 0 C0.33 0.99 0.66 1.98 1 3 C-0.65 2.67 -2.3 2.34 -4 2 C-4.268125 2.639375 -4.53625 3.27875 -4.8125 3.9375 C-6 6 -6 6 -9 7 C-9.33 7.66 -9.66 8.32 -10 9 C-9.4140625 2.84765625 -9.4140625 2.84765625 -9 1 C-6.04335481 -0.4783226 -3.25770263 -0.06032783 0 0 Z " fill="#6CA656" transform="translate(176,109)"/>
<path d="M0 0 C0.66 0.33 1.32 0.66 2 1 C-3.94 6.94 -9.88 12.88 -16 19 C-16 14.00295394 -11.86202174 10.90622798 -8.5625 7.4375 C-5.80338761 4.81297846 -2.95259078 2.40327156 0 0 Z " fill="#1B2411" transform="translate(79,70)"/>
<path d="M0 0 C3.37743989 0.25018073 4.25135369 1.25719913 6.6875 3.75 C8.83054493 6.76184693 9.68158801 8.39133078 10 12 C9.01 12 8.02 12 7 12 C6.731875 11.21625 6.46375 10.4325 6.1875 9.625 C5.15185568 6.71885077 5.15185568 6.71885077 2 5 C2 4.34 2 3.68 2 3 C1.34 3 0.68 3 0 3 C0 2.01 0 1.02 0 0 Z " fill="#598832" transform="translate(214,131)"/>
<path d="M0 0 C0.66 0 1.32 0 2 0 C4.0054804 4.35974 5.53945369 8.16426376 6 13 C5 14 5 14 2.27734375 14.09765625 C0.62412109 14.08025391 0.62412109 14.08025391 -1.0625 14.0625 C-2.16722656 14.05347656 -3.27195313 14.04445313 -4.41015625 14.03515625 C-5.69212891 14.01775391 -5.69212891 14.01775391 -7 14 C-7 13.67 -7 13.34 -7 13 C-6.37351563 12.93941406 -5.74703125 12.87882812 -5.1015625 12.81640625 C-4.28429687 12.73261719 -3.46703125 12.64882812 -2.625 12.5625 C-1.81289062 12.48128906 -1.00078125 12.40007812 -0.1640625 12.31640625 C2.04272805 12.10909886 2.04272805 12.10909886 4 11 C3.71125 10.45730469 3.4225 9.91460937 3.125 9.35546875 C2.75375 8.64003906 2.3825 7.92460938 2 7.1875 C1.443125 6.12595703 1.443125 6.12595703 0.875 5.04296875 C0 3 0 3 0 0 Z " fill="#659338" transform="translate(203,86)"/>
<path d="M0 0 C0.33 0 0.66 0 1 0 C1 7.59 1 15.18 1 23 C0.67 22.34 0.34 21.68 0 21 C-0.99 20.67 -1.98 20.34 -3 20 C-3 19.01 -3 18.02 -3 17 C-2.01 17 -1.02 17 0 17 C0 11.39 0 5.78 0 0 Z " fill="#549B2E" transform="translate(84,174)"/>
<path d="M0 0 C0.99 0.33 1.98 0.66 3 1 C2.690625 1.598125 2.38125 2.19625 2.0625 2.8125 C0.53047628 5.96666648 -0.08230721 7.55188294 0.5625 11.0625 C0.706875 12.031875 0.85125 13.00125 1 14 C0.34 14.66 -0.32 15.32 -1 16 C-2.32286246 11.03926578 -2.08893197 6.08888488 -2 1 C-1.34 0.67 -0.68 0.34 0 0 Z " fill="#86C054" transform="translate(75,114)"/>
<path d="M0 0 C3.80138244 7.09591389 4.06918021 15.24057423 2 23 C1.67 23 1.34 23 1 23 C1.01160156 22.15695313 1.02320313 21.31390625 1.03515625 20.4453125 C1.04417969 19.34960938 1.05320313 18.25390625 1.0625 17.125 C1.07410156 16.03445312 1.08570313 14.94390625 1.09765625 13.8203125 C1.19744303 11.04822454 1.19744303 11.04822454 0 9 C-0.06950541 7.45976004 -0.08452357 5.91665012 -0.0625 4.375 C-0.05347656 3.55773437 -0.04445312 2.74046875 -0.03515625 1.8984375 C-0.02355469 1.27195313 -0.01195312 0.64546875 0 0 Z " fill="#30501E" transform="translate(225,144)"/>
<path d="M0 0 C-1.98 2.97 -1.98 2.97 -4 6 C-5.32 5.34 -6.64 4.68 -8 4 C-7.6875 2.0625 -7.6875 2.0625 -7 0 C-3.86650268 -1.04449911 -3.01031744 -0.93423645 0 0 Z " fill="#69B856" transform="translate(39,134)"/>
<path d="M0 0 C3.3 0 6.6 0 10 0 C10 1.98 10 3.96 10 6 C9.01 6 8.02 6 7 6 C6.67 5.34 6.34 4.68 6 4 C5.34 3.67 4.68 3.34 4 3 C4 2.34 4 1.68 4 1 C2.68 0.67 1.36 0.34 0 0 Z " fill="#80B651" transform="translate(188,119)"/>
<path d="M0 0 C-0.66 1.65 -1.32 3.3 -2 5 C-3.32 5 -4.64 5 -6 5 C-6 5.66 -6 6.32 -6 7 C-7.98 7.66 -9.96 8.32 -12 9 C-3.25 0 -3.25 0 0 0 Z " fill="#6B9462" transform="translate(79,54)"/>
<path d="M0 0 C0.93065133 2.60582371 1.14917407 3.64198224 0.0625 6.25 C-0.4634375 7.11625 -0.4634375 7.11625 -1 8 C-1.66 8 -2.32 8 -3 8 C-3.33 9.65 -3.66 11.3 -4 13 C-4.33 13 -4.66 13 -5 13 C-4.54996653 7.37458159 -3.31558515 4.38512875 0 0 Z " fill="#538A45" transform="translate(31,134)"/>
<path d="M0 0 C-0.125 1.875 -0.125 1.875 -1 4 C-4.78661425 5.76708665 -7.04865524 6.1914033 -11 5 C-9.54462432 4.16151196 -8.08559627 3.32936066 -6.625 2.5 C-5.81289062 2.0359375 -5.00078125 1.571875 -4.1640625 1.09375 C-2 0 -2 0 0 0 Z " fill="#6F9464" transform="translate(90,48)"/>
<path d="M0 0 C0 1.32 0 2.64 0 4 C-0.7425 4.144375 -1.485 4.28875 -2.25 4.4375 C-4.52027739 4.90187492 -6.75759479 5.41863569 -9 6 C-8.67 4.35 -8.34 2.7 -8 1 C-5.23735711 0.40267181 -2.83967231 0 0 0 Z " fill="#94CA70" transform="translate(98,47)"/>
<path d="M0 0 C0.33 1.32 0.66 2.64 1 4 C-0.32 4.33 -1.64 4.66 -3 5 C-3.33 6.32 -3.66 7.64 -4 9 C-5.65 9.33 -7.3 9.66 -9 10 C-8.06409496 8.8944811 -7.12620142 7.79064547 -6.1875 6.6875 C-5.66542969 6.07261719 -5.14335938 5.45773438 -4.60546875 4.82421875 C-3.12827531 3.14575321 -1.59960869 1.56117966 0 0 Z " fill="#73A16F" transform="translate(65,63)"/>
<path d="M0 0 C0 0.66 0 1.32 0 2 C-4.38461538 5 -4.38461538 5 -7 5 C-7 3.35 -7 1.7 -7 0 C-4.3333581 -1.33332095 -2.83319697 -0.67102033 0 0 Z " fill="#6AA353" transform="translate(80,110)"/>
<path d="M0 0 C0.99 0 1.98 0 3 0 C1.77946141 3.66161578 0.63217696 4.16270474 -2.5625 6.1875 C-3.38878906 6.71730469 -4.21507813 7.24710937 -5.06640625 7.79296875 C-5.70449219 8.19128906 -6.34257813 8.58960937 -7 9 C-7.33 8.01 -7.66 7.02 -8 6 C-7.01 5.67 -6.02 5.34 -5 5 C-4.67 4.34 -4.34 3.68 -4 3 C-3.01 3 -2.02 3 -1 3 C-0.67 2.01 -0.34 1.02 0 0 Z " fill="#86B24B" transform="translate(82,65)"/>
<path d="M0 0 C-3.1622274 1.73169596 -6.26742722 2.7128976 -9.75 3.625 C-10.73484375 3.88539062 -11.7196875 4.14578125 -12.734375 4.4140625 C-13.85585937 4.70410156 -13.85585937 4.70410156 -15 5 C-15 4.34 -15 3.68 -15 3 C-14.34 3 -13.68 3 -13 3 C-13 2.34 -13 1.68 -13 1 C-8.61414671 0.29826347 -4.44209357 -0.10834375 0 0 Z " fill="#92B45B" transform="translate(111,56)"/>
<path d="M0 0 C3.27286682 2.7819368 4.96427697 6.27954067 7 10 C2.33845958 8.50164772 1.13389249 5.11536409 -1 1 C-0.67 0.67 -0.34 0.34 0 0 Z " fill="#52962A" transform="translate(29,172)"/>
<path d="M0 0 C0.66 0.66 1.32 1.32 2 2 C1.67 2.99 1.34 3.98 1 5 C-1.31 5.33 -3.62 5.66 -6 6 C-4 4 -2 2 0 0 Z " fill="#528847" transform="translate(38,128)"/>
<path d="M0 0 C0.99 0.33 1.98 0.66 3 1 C3 1.99 3 2.98 3 4 C-3.0546875 4.9765625 -3.0546875 4.9765625 -5 5 C-5.66 4.34 -6.32 3.68 -7 3 C-4.69 3 -2.38 3 0 3 C0 2.01 0 1.02 0 0 Z " fill="#94C458" transform="translate(165,59)"/>
<path d="M0 0 C2.4375 0.375 2.4375 0.375 5 1 C5.33 1.66 5.66 2.32 6 3 C6.99 3.33 7.98 3.66 9 4 C9.33 3.01 9.66 2.02 10 1 C10 2.32 10 3.64 10 5 C3.47692308 4.50769231 3.47692308 4.50769231 1.0625 1.9375 C0.711875 1.298125 0.36125 0.65875 0 0 Z " fill="#467724" transform="translate(34,182)"/>
<path d="M0 0 C3.3 0 6.6 0 10 0 C9.01 0.33 8.02 0.66 7 1 C7 1.99 7 2.98 7 4 C4.08482708 2.92598892 2.22189824 2.22189824 0 0 Z " fill="#8CBA67" transform="translate(54,119)"/>
<path d="M0 0 C-0.4640625 1.1446875 -0.4640625 1.1446875 -0.9375 2.3125 C-1.67893593 4.18789677 -2.36228217 6.08684652 -3 8 C-3.99 8 -4.98 8 -6 8 C-6.33 7.01 -6.66 6.02 -7 5 C-2.25 0 -2.25 0 0 0 Z " fill="#79C051" transform="translate(174,111)"/>
<path d="M0 0 C4.75 0.875 4.75 0.875 7 2 C7 2.66 7 3.32 7 4 C4.69 4 2.38 4 0 4 C0 2.68 0 1.36 0 0 Z " fill="#A3C172" transform="translate(152,45)"/>
<path d="M0 0 C0.6875 1.8125 0.6875 1.8125 1 4 C-0.3125 5.75 -0.3125 5.75 -2 7 C-2.66 7 -3.32 7 -4 7 C-3.43628586 3.73045798 -2.50037734 2.17424117 0 0 Z " fill="#5F9547" transform="translate(49,83)"/>
<path d="M0 0 C0.99 1.98 1.98 3.96 3 6 C-0.37503669 4.8141763 -2.64722731 3.72426311 -5 1 C-2 0 -2 0 0 0 Z " fill="#80A64D" transform="translate(167,63)"/>
<path d="M0 0 C-4.625 3 -4.625 3 -8 3 C-8.33 3.66 -8.66 4.32 -9 5 C-8.8125 3.125 -8.8125 3.125 -8 1 C-4.70594381 -0.82039948 -3.63772813 -1.21257604 0 0 Z " fill="#A0D86E" transform="translate(83,60)"/>
<path d="M0 0 C0.33 0.99 0.66 1.98 1 3 C-1.49064888 3.68707555 -3.37886292 4 -6 4 C-5.67 3.01 -5.34 2.02 -5 1 C-2 0 -2 0 0 0 Z " fill="#94D45B" transform="translate(74,70)"/>
<path d="M0 0 C2.97 1.98 2.97 1.98 6 4 C5.67 4.66 5.34 5.32 5 6 C3.68 5.67 2.36 5.34 1 5 C0.67 3.35 0.34 1.7 0 0 Z " fill="#90BD58" transform="translate(180,60)"/>
</svg>
